<svg xmlns="http://www.w3.org/2000/svg" viewBox="0 0 200 200"><path fill="#FFF" d="M64.246 171.236h69.828l-8.147-4.936H71.505l-7.259 4.936zm70.476.85h-71.01v4.855l71.01.25v-5.104zm-72.339-1.645l8.374-5.695a.859.859 0 0 1 .483-.149h8.454L73.47 109.8a.853.853 0 0 1 .85-.946h10.181v-7.49c0-.47.383-.85.856-.85h6.759v-3.235c0-.47.383-.85.855-.85 2.56 0 4.012-1.321 4.71-3.648.375-1.252.47-2.591.408-3.727a5.24 5.24 0 0 0-.014-.201.844.844 0 0 1 .14-.558L87.476 65.472l-23.043.997c-.755.033-1.179-.853-.677-1.415l15.922-17.84-7.705-21.91c-.24-.68.424-1.329 1.103-1.08l23.686 8.69 16.823-12.738c.571-.433 1.39-.016 1.374.697l-.503 20.908 23.241 16.334c.63.443.396 1.424-.367 1.537l-24.045 3.571-7.447 37.29h7.239c.472 0 .855.38.855.85v7.49h10.181c.517 0 .916.452.849.962l-7.231 54.782h8.436c.157 0 .31.043.445.125l9.398 5.694a.858.858 0 0 1 .423.75v6.878a.853.853 0 0 1-.858.851l-72.722-.255a.853.853 0 0 1-.853-.851v-6.626a.849.849 0 0 1 .383-.722zm19.033-5.844h34.59l7.132-54.042h-10.061a.866.866 0 0 1-.276-.045.428.428 0 0 1-.409.3H84.587a.428.428 0 0 1-.392-.255h-8.917l6.138 54.042zm4.757-54.638h26.087a.847.847 0 0 1-.039-.255v-7.49H86.212v7.49a.847.847 0 0 1-.039.255zM69.285 61.422l-2.908 3.26 21.595-.935a.856.856 0 0 1 .812.49l15.834 33.65 7.106-35.583a.854.854 0 0 1 .713-.676l22.532-3.346-3.51-2.467a.426.426 0 0 1-.39.526l-19.691 1.172-6.438 31.68c-.081.401-.63.467-.806.096L90.566 60.608l-21.28.814zm.787-.882l20.744-.793c.171-.007.33.09.403.244l13.139 27.773 6.246-30.74c.039-.19.2-.33.394-.34L131 55.492 113.096 42.91a.85.85 0 0 1-.361-.716l.47-19.592-15.78 11.95a.86.86 0 0 1-.814.12l-19.286-7.075 7.061 17.952a.424.424 0 0 1-.096.456L73.194 57.042l-3.122 3.498zm11.414-12.95l2.002-1.99-7.237-18.397-2.064-.757 7.272 20.679a.846.846 0 0 1 .027.465zm18.219 43.87c-.08.599-.205 1.207-.384 1.806-.82 2.732-2.606 4.53-5.494 4.821v2.425h10.137l-4.26-9.052zm10.037 43.858a.43.43 0 0 1-.598.09.424.424 0 0 1-.09-.595c1.163-1.571 1.798-3.445 1.798-5.365 0-5.522-5.168-9.957-11.635-9.957-6.433 0-11.636 4.49-11.636 9.957 0 1.636.45 3.181 1.31 4.636a.424.424 0 0 1-.152.582.429.429 0 0 1-.585-.15c-.936-1.582-1.428-3.275-1.428-5.068 0-5.966 5.61-10.808 12.49-10.808 6.915 0 12.492 4.786 12.492 10.808 0 2.104-.695 4.154-1.966 5.87zm-4.793 4.939a.427.427 0 0 1 0 .851H93.827a.427.427 0 0 1-.428-.425c0-.235.191-.426.428-.426h11.122zm0-11.915a.427.427 0 0 1 0 .851H93.827a.427.427 0 0 1-.428-.425c0-.235.191-.426.428-.426h11.122zm-2.86 4.903a.425.425 0 0 1-.228-.558.429.429 0 0 1 .56-.226c.268.112.497.136 1.048.136 2.024 0 3.619-1.676 3.619-3.83 0-2.152-1.595-3.83-3.619-3.83-.652 0-1.223.15-1.721.45a.43.43 0 0 1-.587-.144.424.424 0 0 1 .145-.584c.635-.382 1.359-.572 2.163-.572 2.508 0 4.474 2.068 4.474 4.68 0 2.614-1.966 4.681-4.474 4.681-.662 0-.974-.032-1.38-.203z"/></svg>