<svg xmlns="http://www.w3.org/2000/svg" viewBox="0 0 200 200"><path fill="#FFF" d="M126.01 146.77H74.99v31.179h51.02v-31.18zm-40.5-1.642L61.015 21.39a.813.813 0 0 1 .019-.396l-.017-.053c-.12-.392.29-.625.573-.498a.828.828 0 0 1 .232-.033h77.354a.82.82 0 0 1 .807.98L115.49 145.128h11.342c.455 0 .823.368.823.82v32.821c0 .453-.368.82-.823.82H74.167a.822.822 0 0 1-.823-.82v-32.82c0-.453.368-.82.823-.82h11.342zm1.677 0h12.092L65.455 35.342l21.732 109.786zm13.426 0h13.2l23.723-119.845-36.923 119.845zM63.908 27.526L99.946 144.5l37.725-122.448H62.824l1.084 5.475zm22.233 30.11c-.793-.514-1.359-1.408-1.359-2.682 0-4.267 6.337-4.267 6.337 0 0 1.303-.592 2.209-1.413 2.716l.59.73h-4.773l.618-.765zm2.595-1.166c.45-.26.792-.766.82-1.516 0-2.216-3.128-2.216-3.128 0 0 .708.29 1.198.692 1.47l.79-.978.826 1.024zm-1.732 5.622h-1.563v-1.395h4.608v1.395h-1.481v4.841h-1.564v-4.84zm7.077-1.395c2.469 0 2.88 2.954 1.317 4.02l1.234 1.97v.246h-1.81l-1.07-1.805h-.823v1.805h-1.563v-6.236h2.715zm0 2.954c.823 0 .905-1.477 0-1.559H92.93v1.56h1.152zm6.008-3.036h.822l2.798 6.072v.246h-1.563l-.412-.738h-2.468l-.412.738h-1.563v-.246l2.798-6.072zm-.33 4.185h1.482l-.741-1.641-.74 1.641zm7.242-4.103c4.032 0 4.032 6.236-.082 6.236h-2.304v-6.236H107zm0 4.76c1.893 0 1.893-3.283 0-3.365h-.74v3.364h.74zm6.007.081h2.387v1.395h-3.95v-6.236h3.868v1.395h-2.305v.903h2.14v1.395h-2.14v1.148zM92.6 51.836h1.646v4.759h2.222v1.477H92.6v-6.236zm6.83 2.133l1.152-2.051h1.728v.246l-2.14 3.364v2.626h-1.563v-2.626l-2.057-3.364v-.246h1.728l1.152 2.051zm6.995.575l2.469-2.708h.576v6.236h-1.646v-2.79l-1.317 1.395h-.164l-1.317-1.395v2.79h-1.646v-6.236h.576l2.469 2.708zm7.57-2.708c2.963 0 2.963 4.677 0 4.677h-1.151v1.559h-1.564v-6.236h2.716zm0 3.2c.824 0 .906-1.723 0-1.805h-1.151v1.805h1.152zm-9.71-4.02h4.444l-2.222 2.215-2.222-2.216zm-22.3 101.743c.246-.082.575-.082.987-.082.494 0 .905.082 1.152.328.247.164.33.41.33.739 0 .41-.248.738-.66.902.412.082.824.41.824.985 0 .328-.165.656-.33.82-.246.246-.74.41-1.398.41-.33 0-.659 0-.823-.082v-4.02h-.083zm.493 1.641h.494c.576 0 .905-.328.905-.656 0-.493-.33-.657-.905-.657h-.494v1.313zm0 1.97h.412c.576 0 1.07-.165 1.07-.821 0-.575-.494-.82-1.07-.82h-.412v1.64zm5.02-1.56h-1.646v1.477h1.81v.41h-2.304v-4.102h2.222v.41h-1.646v1.313h1.564v.492zm.658 1.313c.247.164.576.246.988.246.576 0 .823-.246.823-.656 0-.41-.247-.575-.741-.82-.658-.247-1.07-.575-1.07-1.15 0-.656.494-1.148 1.317-1.148.411 0 .74.082.905.164l-.164.41a1.647 1.647 0 0 0-.741-.164c-.576 0-.74.328-.74.574 0 .41.246.575.822.821.659.246 1.07.574 1.07 1.23 0 .657-.494 1.15-1.399 1.15-.411 0-.823-.083-1.07-.247v-.41zm3.868-2.954H90.79v-.41h3.044v.41H92.6v3.61h-.576v-3.61zm4.115 0h-1.317v-.41h3.045v.41h-1.235v3.61h-.493v-3.61zm2.221-.41c.247-.082.659-.082.988-.082.576 0 .905.082 1.152.328.247.164.33.492.33.739 0 .574-.33.902-.741 1.066.329.082.493.41.576.82.164.575.246.985.329 1.15h-.576c-.083-.083-.165-.493-.247-.985-.082-.574-.33-.739-.823-.82h-.494v1.804h-.494v-4.02zm.494 1.805h.576c.576 0 .905-.328.905-.738 0-.493-.411-.739-.905-.739-.247 0-.411 0-.494.082v1.395h-.082zm3.456.903l-.411 1.312h-.576l1.399-4.102h.658l1.4 4.102h-.577l-.411-1.312h-1.482zm1.317-.41l-.411-1.15-.247-.738-.247.739-.412 1.148h1.317zm1.728-2.298c.33-.082.74-.082 1.152-.082.74 0 1.317.164 1.646.492.33.328.576.82.576 1.477 0 .657-.247 1.23-.576 1.56-.411.41-.987.573-1.81.573-.412 0-.659 0-.988-.082v-3.938zm.412 3.61h.576c1.152 0 1.728-.656 1.728-1.723 0-.984-.576-1.559-1.646-1.559-.247 0-.494 0-.658.082v3.2zm5.842-1.559h-1.645v1.477h1.81v.41h-2.304v-4.102h2.222v.41h-1.646v1.313h1.563v.492zm.823-2.051c.247-.082.659-.082.988-.082.576 0 .905.082 1.152.328.247.164.329.492.329.739 0 .574-.33.902-.74 1.066.329.082.493.41.575.82.165.575.247.985.33 1.15h-.576c-.083-.083-.165-.493-.247-.985-.083-.574-.33-.739-.823-.82h-.494v1.804h-.494v-4.02zm.494 1.805h.576c.576 0 .905-.328.905-.738 0-.493-.411-.739-.905-.739-.247 0-.411 0-.494.082v1.395h-.082zm2.633 1.56c.247.163.576.245.988.245.576 0 .823-.246.823-.656 0-.41-.247-.575-.74-.82-.66-.247-1.07-.575-1.07-1.15 0-.656.493-1.148 1.316-1.148.412 0 .74.082.905.164l-.164.41a1.647 1.647 0 0 0-.741-.164c-.576 0-.74.328-.74.574 0 .41.246.575.822.821.659.246 1.07.574 1.07 1.23 0 .657-.494 1.15-1.399 1.15-.411 0-.823-.083-1.07-.247v-.41zm-35.632 3.855h2.222v.41h-1.646v1.396h1.564v.41h-1.564v1.887h-.576v-4.103zm2.963 0c.246-.082.576-.082.987-.082.494 0 .905.082 1.152.329.247.164.33.41.33.738 0 .41-.248.739-.659.903.411.082.823.41.823.984 0 .328-.165.657-.33.82-.246.247-.74.411-1.398.411-.33 0-.659 0-.823-.082v-4.02h-.082zm.493 1.724h.494c.576 0 .905-.329.905-.657 0-.492-.329-.656-.905-.656h-.494v1.313zm0 1.969h.412c.576 0 1.07-.164 1.07-.82 0-.575-.494-.821-1.07-.821h-.412v1.64zm6.995.246c-.164.082-.576.164-1.07.164-1.152 0-2.057-.738-2.057-2.051 0-1.313.905-2.134 2.14-2.134.493 0 .823.082.987.165l-.164.41c-.165-.082-.494-.164-.823-.164-.988 0-1.564.574-1.564 1.723 0 .984.576 1.64 1.564 1.64.329 0 .658-.081.823-.163l.164.41zm4.032-1.97c0 1.396-.822 2.134-1.892 2.134-1.07 0-1.81-.82-1.81-2.051 0-1.313.822-2.134 1.892-2.134 1.07 0 1.81.82 1.81 2.052zm-3.209.083c0 .902.494 1.64 1.317 1.64s1.316-.738 1.316-1.722c0-.82-.411-1.641-1.316-1.641s-1.317.82-1.317 1.723zm7.324.246c0-.574-.082-1.23-.082-1.723-.165.492-.33.984-.494 1.559l-.74 1.97h-.412l-.658-1.97a35.94 35.94 0 0 0-.494-1.56c0 .493-.082 1.232-.082 1.806l-.083 1.723h-.494l.247-4.103h.659l.658 1.97c.165.492.33.984.411 1.395.083-.41.247-.82.412-1.395l.74-1.97h.659l.247 4.103h-.494v-1.805zm4.855 0c0-.574-.082-1.23-.082-1.723-.165.492-.33.984-.494 1.559l-.74 1.97h-.412l-.658-1.97c-.165-.575-.33-1.067-.494-1.56 0 .493-.082 1.232-.082 1.806l-.083 1.723h-.493l.247-4.103h.658l.658 1.97c.165.492.33.984.412 1.395.082-.41.247-.82.411-1.395l.74-1.97h.66l.246 4.103h-.494v-1.805zm1.975-2.298v2.38c0 .903.412 1.313.988 1.313.576 0 .987-.41.987-1.313v-2.38h.576v2.38c0 1.23-.658 1.805-1.563 1.805-.823 0-1.482-.492-1.482-1.723v-2.38h.494v-.082zM108.73 164v-4.103h.576l1.317 2.052c.329.492.576.902.74 1.313-.082-.575-.082-1.067-.082-1.641v-1.724h.494V164h-.576l-1.317-2.051c-.247-.493-.576-.903-.74-1.395 0 .492.082.984.082 1.723V164h-.494zm4.609-4.02v4.102h-.494v-4.103h.494zm1.728.41h-1.317v-.41h3.045v.41h-1.235V164h-.493v-3.61zm3.291 3.61v-1.723l-1.316-2.38h.576l.576 1.15c.164.327.247.574.411.82.082-.246.247-.575.412-.82l.576-1.15h.576l-1.4 2.38V164h-.41zm-33.492 3.2v4.103h-.494V167.2h.494zm.905 4.103V167.2h.576l1.317 2.051c.329.493.576.903.74 1.313-.082-.574-.082-1.067-.082-1.64V167.2h.494v4.103h-.576l-1.317-2.052c-.247-.492-.576-.902-.74-1.395 0 .493.082.985.082 1.723v1.724h-.494zm5.925-3.61h-1.317v-.41h3.045v.41H92.19v3.61h-.494v-3.61zm2.633-.493v1.723h1.975V167.2h.494v4.103h-.494v-1.888h-1.975v1.888h-.494V167.2h.494zm4.115 2.79l-.412 1.313h-.576l1.4-4.103h.658l1.398 4.103h-.576l-.411-1.313h-1.481zm1.316-.41l-.411-1.15-.247-.738-.247.739-.411 1.148h1.316zm2.305-2.38v4.103h-.494V167.2h.494zm.905 0h.494v3.61h1.728v.41h-2.222v-4.02zm3.538 2.79l-.411 1.313h-.576l1.399-4.103h.658l1.399 4.103h-.576l-.411-1.313h-1.482zm1.317-.41l-.411-1.15-.247-.738-.247.739-.412 1.148h1.317zm1.728 1.723V167.2h.576l1.317 2.051c.329.493.576.903.74 1.313-.082-.574-.082-1.067-.082-1.64V167.2h.494v4.103h-.576l-1.317-2.052c-.247-.492-.576-.902-.74-1.395 0 .493.082.985.082 1.723v1.724h-.494zm4.032-4.02c.33-.083.741-.083 1.152-.083.741 0 1.317.164 1.646.492.33.329.576.82.576 1.477 0 .657-.247 1.231-.576 1.56-.411.41-.987.574-1.81.574-.412 0-.658 0-.988-.082v-3.939zm.494 3.61h.494c1.152 0 1.728-.657 1.728-1.724 0-.984-.576-1.559-1.646-1.559-.247 0-.494 0-.658.082v3.2h.082zM91.036 39.937c-.905 0-1.563-.246-2.304-.82-.164-.082-.247-.246-.247-.328 0-.082 0-.164.083-.246.082-.082.164-.082.247-.082.082 0 .246.082.329.164.658.492 1.152.738 1.892.738v-3.61h-.164c-.658-.082-1.152-.246-1.564-.657-.493-.41-.658-.902-.658-1.64 0-1.395.905-2.298 2.469-2.38v-.739c0-.164 0-.246.082-.246.082-.082.165-.082.247-.082.082 0 .165 0 .247.082.082.082.082.164.082.246v.739c.74 0 1.317.246 1.893.656.164.082.247.246.247.329 0 .082 0 .164-.083.164-.082.082-.164.082-.246.082-.083 0-.247-.082-.33-.164-.576-.41-.905-.575-1.48-.575v3.528l.328.082c.823.165 1.235.247 1.564.575.494.41.74.984.74 1.723 0 1.395-.987 2.297-2.715 2.38v.984c0 .164 0 .246-.082.246-.083.082-.165.082-.247.082-.083 0-.165 0-.247-.082-.083-.082-.083-.164-.083-.246v-.903zm0-4.84V31.65c-1.152.082-1.81.739-1.81 1.805 0 .493.165.903.494 1.15.329.245.658.327 1.316.491zm.577.656v3.528c1.234-.082 1.975-.738 1.975-1.805 0-.492-.165-.985-.494-1.23-.33-.247-.576-.33-1.235-.493h-.246zm6.418-4.841h-1.234v-.41h3.045v.41h-1.235v3.61h-.576v-3.61zm1.893 1.64v-.902h.494v.575c.164-.41.493-.657.823-.657h.164v.493h-.164c-.412 0-.659.246-.741.656v1.805h-.494v-1.97h-.082zm3.62 1.97l-.081-.41c-.165.246-.494.41-.906.41-.576 0-.905-.41-.905-.82 0-.739.658-1.067 1.728-1.067v-.082c0-.246-.082-.657-.658-.657-.247 0-.576.082-.74.247l-.083-.329c.247-.164.576-.246.987-.246.906 0 1.153.575 1.153 1.231v1.067c0 .246 0 .492.082.738h-.576v-.082zm-.081-1.477c-.577 0-1.235.082-1.235.657 0 .328.247.492.494.492.411 0 .658-.246.74-.492v-.657zm3.95-2.79v4.267h-.494v-.492c-.165.328-.494.574-.988.574-.74 0-1.234-.574-1.234-1.477 0-.984.576-1.559 1.317-1.559.411 0 .74.246.905.41v-1.723h.494zm-.577 2.544v-.246c-.082-.328-.411-.657-.74-.657-.576 0-.905.493-.905 1.15 0 .574.329 1.066.905 1.066.329 0 .658-.246.823-.657V32.8h-.083zm1.729.41c0 .739.493.985.987.985.412 0 .576-.082.823-.164l.082.41c-.164.082-.493.164-.987.164-.905 0-1.481-.574-1.481-1.477 0-.902.493-1.559 1.399-1.559.987 0 1.234.82 1.234 1.395v.246h-2.057zm1.563-.41c0-.328-.164-.903-.74-.903-.577 0-.741.493-.823.903h1.563zm1.235-.246v-.903h.493v.575c.165-.41.494-.657.823-.657h.165v.493h-.165c-.411 0-.658.246-.74.656v1.805h-.494v-1.97h-.082zm1.892 1.477c.165.082.412.246.74.246.412 0 .577-.164.577-.41 0-.246-.165-.41-.576-.575-.494-.164-.74-.492-.74-.82 0-.493.41-.82.987-.82.329 0 .576.081.74.163l-.164.41c-.083-.081-.33-.163-.576-.163-.33 0-.494.164-.494.41 0 .246.165.328.576.492.494.164.74.41.74.903 0 .492-.41.902-1.07.902-.328 0-.657-.082-.822-.164l.082-.574zm-15.388 4.84l-.412 1.314h-.576l1.4-4.103h.657l1.4 4.103h-.577l-.411-1.313h-1.481zm1.399-.41l-.412-1.148-.247-.739-.247.739-.411 1.149h1.317zm1.728-1.23l.411 1.477c.083.328.165.656.247.902.082-.328.165-.574.247-.902l.494-1.477h.411l.494 1.477.247.984c.082-.328.164-.574.247-.984l.411-1.477h.494l-.988 2.954h-.493l-.412-1.395-.247-.985-.247.985-.493 1.395h-.494l-.823-2.954h.494zm5.925 2.954l-.083-.41c-.164.246-.493.41-.905.41-.576 0-.905-.41-.905-.82 0-.74.658-1.068 1.728-1.068v-.082c0-.246-.082-.656-.658-.656-.247 0-.576.082-.74.246l-.083-.328c.247-.164.576-.246.987-.246.906 0 1.153.574 1.153 1.23v1.067c0 .246 0 .493.082.739h-.576v-.082zm-.083-1.477c-.576 0-1.234.082-1.234.656 0 .328.247.492.494.492.411 0 .658-.246.74-.492v-.656zm1.317-.575v-.902h.494v.574c.164-.41.494-.656.823-.656h.164v.492h-.164c-.412 0-.659.246-.74.656v1.806h-.495v-1.97h-.082zm4.526-2.215v4.267h-.494v-.493c-.164.329-.493.575-.987.575-.74 0-1.234-.575-1.234-1.477 0-.985.576-1.56 1.316-1.56.412 0 .74.247.905.411v-1.723h.494zm-.576 2.544v-.247c-.082-.328-.411-.656-.74-.656-.577 0-.906.492-.906 1.149 0 .574.33 1.066.906 1.066.329 0 .658-.246.822-.656v-.656h-.082zm-27.033 2.05h-.411v-9.845h.411v9.846z"/></svg>