<svg xmlns="http://www.w3.org/2000/svg" viewBox="0 0 200 200"><path fill="#FFF" fill-rule="evenodd" d="M85.536 129.266a24.774 24.774 0 0 0 14.015 4.32 24.77 24.77 0 0 0 14.015-4.32c-.794-.111-1.612-.222-2.44-.33a23.217 23.217 0 0 1-11.575 3.072c-4.116 0-8.078-1.07-11.574-3.072-.829.108-1.647.219-2.44.33zm29.953.277a26.136 26.136 0 0 1-15.938 5.396 26.119 26.119 0 0 1-15.937-5.397c-1.725.254-3.264.497-4.455.69l2.495.552v-.516h1.348v2.648l-.665.01c-.665.01-2.23.15-4.386.382-.254.027-.513.054-.779.085-.931.103-1.89.213-2.822.325-.328.038-.63.072-.895.105l-.334.04-1.312.161 2.479-4.49-2.298-3.153 4.56-.943.08.385v-3.282s.189-.045.544-.123a26.3 26.3 0 0 1-3.916-13.852c0-14.566 11.772-26.373 26.293-26.373 14.52 0 26.292 11.807 26.292 26.373a26.31 26.31 0 0 1-3.915 13.852c.354.078.544.123.544.123v3.282l.079-.385 4.56.943-2.298 3.153 2.48 4.49-1.313-.16-.334-.04c-.265-.034-.566-.068-.895-.106a300.84 300.84 0 0 0-2.822-.325l-.778-.085c-2.158-.232-3.722-.372-4.387-.383l-.665-.009v-2.648h1.348v.516l2.495-.552a325.1 325.1 0 0 0-4.453-.69zm5.03-7.421a24.95 24.95 0 0 0 3.975-13.556c0-13.819-11.167-25.02-24.943-25.02-13.777 0-24.944 11.201-24.944 25.02 0 4.88 1.394 9.549 3.974 13.556.482-.098 1.043-.208 1.673-.325a23.385 23.385 0 0 1-4.074-13.23c0-12.948 10.463-23.443 23.37-23.443 12.908 0 23.371 10.495 23.371 23.442 0 4.793-1.436 9.37-4.075 13.23.631.118 1.192.228 1.674.326zm-31 6.62a22.327 22.327 0 0 0 10.032 2.365c3.535 0 6.95-.82 10.03-2.365-3.642-.445-7.341-.791-10.03-.791-2.69 0-6.39.346-10.032.791zm28.355-7.123a22.482 22.482 0 0 0 4.148-13.053c0-12.448-10.06-22.54-22.471-22.54s-22.472 10.092-22.472 22.54c0 4.748 1.466 9.272 4.148 13.053 4.393-.784 11.358-1.783 18.324-1.783 6.965 0 13.93 1 18.323 1.783zm-19.222-8.92V94.142H91.46v7.415-.002c0 3.574 2.463 8.097 5.467 10.033l1.724 1.113zm.899.001l1.724-1.112c3.006-1.939 5.467-6.458 5.467-10.039v-4.705h-2.697v-2.703H99.55V112.7zm7.19-16.757v-.078l-1.756-1.724h-.041v1.802h1.798zM65.547 74.754h-1.459l-2.418-3.498-.742.608v2.89h-1.259v-7.723h1.259v3.687c.345-.423.687-.83 1.028-1.22l2.08-2.467h1.433a463.92 463.92 0 0 1-2.892 3.385l2.97 4.338zm2.274-4.131h.876c.586 0 1.011-.108 1.274-.328.264-.219.396-.542.396-.971 0-.438-.144-.75-.427-.94-.285-.19-.713-.287-1.286-.287h-.833v2.526zm0 1.046v3.085h-1.258v-7.723h2.175c.994 0 1.73.186 2.208.559.476.374.716.937.716 1.691 0 .961-.499 1.647-1.496 2.056l2.177 3.417h-1.434l-1.843-3.085H67.82zm12.473-.787c0 1.257-.313 2.236-.94 2.932-.627.697-1.514 1.046-2.663 1.046-1.162 0-2.054-.347-2.678-1.037-.622-.695-.935-1.677-.935-2.952s.314-2.254.941-2.937c.626-.683 1.52-1.025 2.683-1.025 1.145 0 2.03.346 2.655 1.04.625.694.937 1.671.937 2.932zm-5.879 0c0 .95.193 1.672.576 2.163.383.491.949.737 1.7.737.748 0 1.313-.243 1.694-.73.38-.485.572-1.208.572-2.17 0-.947-.19-1.667-.567-2.155-.377-.49-.94-.735-1.688-.735-.755 0-1.325.243-1.708.734-.386.49-.578 1.208-.578 2.155zm13.569-3.851v4.997c0 .57-.121 1.07-.365 1.497a2.443 2.443 0 0 1-1.059.988c-.462.231-1.014.347-1.657.347-.954 0-1.698-.253-2.227-.761-.53-.507-.795-1.204-.795-2.092V67.03h1.263v4.887c0 .638.148 1.109.443 1.41.294.304.747.455 1.359.455 1.186 0 1.78-.625 1.78-1.875V67.03h1.258zm3.217 7.723h-1.248v-7.723h4.346v1.066H91.2v2.415h2.903v1.073H91.2v3.17zm5.753-4.131h.874c.586 0 1.01-.108 1.274-.328.263-.219.396-.542.396-.971 0-.438-.144-.75-.427-.94-.285-.19-.713-.287-1.286-.287h-.832v2.525zm0 1.046v3.085h-1.259v-7.723h2.176c.992 0 1.728.186 2.206.559.476.374.716.937.716 1.691 0 .961-.498 1.647-1.495 2.056l2.175 3.417h-1.432l-1.843-3.085h-1.244zm13.213 3.085l-.768-2.146h-2.944l-.753 2.146h-1.328l2.88-7.756h1.37l2.883 7.756h-1.34zm-1.1-3.233l-.722-2.103c-.052-.14-.126-.362-.218-.665a14.359 14.359 0 0 1-.193-.667c-.094.434-.233.908-.416 1.422l-.695 2.013h2.244zm8.1 3.233l-.753-2.726c-.091-.288-.256-.96-.494-2.013h-.048c-.204.951-.365 1.626-.486 2.023l-.773 2.716h-1.37l-1.632-5.843h1.264l.742 2.88c.17.712.288 1.32.36 1.827h.03c.036-.257.09-.552.162-.884a8.63 8.63 0 0 1 .186-.748l.884-3.075h1.359l.858 3.075c.054.171.119.436.198.794.08.354.126.63.14.829h.042c.052-.435.175-1.04.368-1.819l.753-2.879h1.244l-1.643 5.843h-1.39zm7.68 0l-.247-.813h-.043c-.28.355-.563.598-.847.726-.284.129-.65.193-1.097.193-.57 0-1.018-.155-1.34-.465-.32-.31-.481-.748-.481-1.316 0-.602.222-1.055.668-1.362.446-.306 1.125-.475 2.039-.503l1.006-.031v-.313c0-.373-.087-.652-.26-.837-.175-.185-.444-.278-.81-.278a2.79 2.79 0 0 0-.858.133 6.495 6.495 0 0 0-.79.311l-.4-.888a4.8 4.8 0 0 1 2.102-.508c.74 0 1.3.163 1.677.487.377.325.566.832.566 1.527v3.937h-.885zm-1.843-.846c.45 0 .81-.126 1.082-.377.273-.252.408-.604.408-1.059v-.508l-.747.031c-.583.023-1.007.12-1.272.295-.265.174-.396.442-.396.8 0 .261.077.462.23.604.155.144.387.216.696.216v-.002zm7.41-5.103c.25 0 .455.018.617.054l-.121 1.156a2.34 2.34 0 0 0-.549-.063c-.494 0-.896.162-1.202.487-.308.323-.461.744-.461 1.262v3.053h-1.238v-5.843h.969l.163 1.03h.063a2.33 2.33 0 0 1 .755-.83 1.803 1.803 0 0 1 1.004-.306zm3.66 6.055c-.726 0-1.294-.265-1.7-.794-.407-.527-.611-1.268-.611-2.223 0-.956.207-1.703.618-2.236.414-.534.984-.801 1.715-.801.764 0 1.349.284 1.749.851h.063a7.54 7.54 0 0 1-.09-.993v-2.128h1.244v8.218h-.971l-.216-.766h-.057c-.398.581-.978.872-1.744.872zm.333-1.004c.51 0 .88-.144 1.111-.43.232-.288.35-.754.358-1.398v-.174c0-.736-.12-1.26-.358-1.57-.239-.31-.613-.465-1.121-.465-.436 0-.772.178-1.007.532-.234.354-.353.857-.353 1.513 0 .65.115 1.143.342 1.482.23.34.572.51 1.027.51h.001zm-40.362 41.717c.318-.276.67-.476 1.059-.58.12-.031.24-.055.367-.067.638-.069 1.295.103 1.938.424.323.16.57.323.719.437l.274.21-.133.322c-.12.286-.343.698-.677 1.112v-.001c-.434.54-.947.928-1.546 1.09-.12.033-.242.055-.366.067-.639.07-1.296-.102-1.939-.423a4.613 4.613 0 0 1-.719-.438l-.276-.21.135-.32a4.777 4.777 0 0 1 .927-1.397 5.37 5.37 0 0 1-.093.08v.002c-.583.497-1.219.811-1.898.834-.699.026-1.371-.26-2-.737a4.693 4.693 0 0 1-.768-.719l-.221-.267.201-.282c.15-.21.41-.51.76-.811.584-.499 1.22-.812 1.9-.836.698-.024 1.372.26 2.001.737.35.266.615.532.768.72l.22.267-.201.281a4.3 4.3 0 0 1-.432.505zm10.115 0a4.3 4.3 0 0 1-.432-.505l-.202-.281.22-.268c.153-.187.418-.453.768-.719.63-.477 1.304-.761 2.001-.737.68.024 1.316.337 1.9.836.35.3.61.6.76.811l.201.282-.22.267a4.693 4.693 0 0 1-.768.719c-.63.478-1.302.763-2 .737-.68-.023-1.316-.337-1.899-.834v-.001a5.37 5.37 0 0 1-.093-.081 4.777 4.777 0 0 1 .927 1.397l.135.32-.276.21a4.613 4.613 0 0 1-.719.438c-.643.321-1.3.493-1.939.423a2.272 2.272 0 0 1-.366-.066c-.6-.163-1.112-.55-1.546-1.091v.001a4.777 4.777 0 0 1-.677-1.112l-.133-.321.275-.211c.148-.114.395-.276.719-.437.642-.321 1.3-.493 1.938-.424.125.012.247.036.366.066.39.105.741.305 1.06.581zm-2.85 1.292c.327.406.691.683 1.08.787.074.02.15.035.229.043.44.047.939-.084 1.442-.336a3.96 3.96 0 0 0 .266-.144 4.066 4.066 0 0 0-.38-.563c-.325-.405-.69-.685-1.079-.789a1.477 1.477 0 0 0-.228-.041c-.44-.048-.94.081-1.443.334-.097.048-.186.099-.265.144.108.193.236.385.38.563l-.001.002zm3.762-1.672c.444.378.904.606 1.348.622.458.015.946-.191 1.426-.556.14-.106.261-.212.364-.309a4.568 4.568 0 0 0-.379-.364c-.442-.379-.903-.604-1.346-.62-.459-.017-.948.189-1.427.554-.14.105-.262.212-.365.308.104.114.232.24.378.366v-.001zm-8.178 1.672l-.001-.002c.144-.178.271-.37.379-.563a5.591 5.591 0 0 0-.265-.144c-.504-.253-1.002-.382-1.443-.334a1.477 1.477 0 0 0-.228.041c-.388.104-.753.384-1.079.79a4.02 4.02 0 0 0-.38.562c.08.047.169.096.266.144.503.252 1.002.383 1.443.336a1.49 1.49 0 0 0 .229-.043c.388-.104.752-.381 1.079-.787zm-3.761-1.672a4.38 4.38 0 0 0 .378-.365 4.493 4.493 0 0 0-.365-.308c-.479-.365-.968-.57-1.426-.555-.443.017-.905.242-1.347.62a4.568 4.568 0 0 0-.38.365c.104.097.226.203.365.31.48.364.968.57 1.426.555.444-.016.905-.244 1.349-.622zm-4.428-1.458c-.102-.01-.2-.028-.3-.054-.605-.151-1.128-.536-1.574-1.074a4.774 4.774 0 0 1-.686-1.091l-.138-.319.27-.214c.151-.12.403-.289.726-.457.656-.341 1.329-.52 1.983-.444.102.012.2.03.3.054.606.152 1.128.536 1.574 1.077.336.405.564.808.686 1.087l.138.318-.27.216a4.812 4.812 0 0 1-.726.457c-.656.34-1.329.52-1.983.444zm1.57-1.245v-.001c.102-.053.196-.106.277-.155a4.247 4.247 0 0 0-.382-.548c-.335-.405-.707-.679-1.101-.778a1.396 1.396 0 0 0-.187-.033c-.445-.053-.953.084-1.465.349a4.773 4.773 0 0 0-.276.155 4.3 4.3 0 0 0 .38.548c.336.404.708.678 1.102.777.061.016.122.025.187.034.445.053.953-.083 1.465-.348zm-4.065-2.334c-.101-.012-.2-.03-.299-.054-.606-.152-1.128-.537-1.575-1.077a4.806 4.806 0 0 1-.686-1.088l-.138-.318.27-.215c.15-.12.402-.29.728-.46.656-.339 1.328-.519 1.983-.441.101.01.2.028.299.054.607.151 1.128.536 1.575 1.075.335.406.563.808.686 1.09l.138.317-.27.216a4.755 4.755 0 0 1-.728.457c-.656.34-1.328.52-1.983.444zm1.57-1.244v.003c.102-.054.197-.106.278-.157a4.31 4.31 0 0 0-.382-.548c-.336-.404-.708-.678-1.102-.777a1.557 1.557 0 0 0-.186-.034c-.445-.052-.953.084-1.466.35a4.29 4.29 0 0 0-.276.155c.11.187.238.375.382.546.335.405.707.68 1.1.778.062.015.123.026.188.033.445.052.952-.084 1.465-.35zm-3.62-3.178c-.438-.295-.765-.732-.999-1.264a4.817 4.817 0 0 1-.32-1.055 4.391 4.391 0 0 1-.066-.49l-.023-.348.329-.108a3.63 3.63 0 0 1 .435-.112c.529-.111 1.076-.148 1.602-.063.4.064.764.197 1.08.41.438.298.765.734.999 1.266a4.878 4.878 0 0 1 .386 1.545l.022.347-.328.109c-.09.03-.239.072-.435.111a4.41 4.41 0 0 1-1.603.064 2.65 2.65 0 0 1-1.079-.412zm1.223-.477v-.001c.393.063.83.036 1.252-.05l-.003-.013a3.995 3.995 0 0 0-.259-.858c-.172-.39-.397-.691-.68-.88a1.754 1.754 0 0 0-.719-.271 3.554 3.554 0 0 0-1.252.05l.003.014c.056.294.14.588.259.858.17.389.397.69.68.88.199.135.44.225.719.27zm-.649-3.39l-.003-.002c-.49-.146-.91-.378-1.237-.717-.317-.33-.532-.747-.662-1.226a4.74 4.74 0 0 1-.111-1.813l.051-.342.344-.04c.025-.002.067-.006.124-.009a4.763 4.763 0 0 1 1.64.174c.488.145.91.379 1.236.718.317.33.532.746.663 1.226a4.77 4.77 0 0 1 .129 1.632 2.364 2.364 0 0 1-.018.18l-.05.343-.344.04-.123.009a4.73 4.73 0 0 1-1.639-.174zm.257-.864v-.001c.341.099.703.142 1.039.144a3.773 3.773 0 0 0-.117-1.076c-.092-.341-.238-.624-.44-.835-.21-.217-.497-.376-.847-.48a3.813 3.813 0 0 0-1.04-.146c-.008.352.023.727.117 1.076.092.343.24.625.443.837.208.216.494.376.845.48zm-.825-4.528a2.614 2.614 0 0 1-.322-.992c-.067-.531-.006-1.084.136-1.625.061-.233.123-.411.168-.52l.13-.32.344.046a4.891 4.891 0 0 1 1.452.465c.54.276.971.642 1.246 1.118.171.298.276.631.32.992.068.53.007 1.084-.134 1.625a4.22 4.22 0 0 1-.167.518l-.134.32-.341-.045a4.917 4.917 0 0 1-1.452-.464c-.54-.276-.971-.642-1.246-1.118zm1.654.313c.253.127.528.227.803.299l.014-.054c.115-.438.165-.882.113-1.28a1.724 1.724 0 0 0-.207-.655c-.176-.308-.477-.563-.875-.765a4.007 4.007 0 0 0-.803-.3l-.015.054c-.115.438-.164.882-.112 1.282.03.247.099.465.207.655.176.306.477.561.875.764zm19.533-3.55l2.288 2.247v6.062c0 3.889-2.615 8.694-5.88 10.8l-2.659 1.712-2.659-1.713c-3.26-2.102-5.88-6.912-5.88-10.792v-8.316h14.79zm4.146 20.497c-.654.075-1.326-.104-1.982-.444a4.812 4.812 0 0 1-.727-.457l-.27-.216.138-.318c.122-.28.35-.682.686-1.087.447-.541.968-.925 1.575-1.077.099-.024.198-.042.3-.054.653-.077 1.326.103 1.982.444.324.168.575.338.726.457l.27.214-.138.319c-.122.282-.35.685-.685 1.09-.447.539-.97.924-1.575 1.075a2.104 2.104 0 0 1-.3.055v-.001zm-1.57-1.245c.512.265 1.02.4 1.465.348.065-.009.126-.018.187-.034.394-.099.766-.373 1.101-.777a4.16 4.16 0 0 0 .381-.548 4.773 4.773 0 0 0-.275-.155c-.513-.265-1.02-.402-1.466-.35a1.396 1.396 0 0 0-.187.034c-.393.1-.765.373-1.1.778-.145.173-.272.36-.383.548.081.05.176.102.277.155v.001zm4.065-2.334c-.655.077-1.327-.104-1.983-.444a4.755 4.755 0 0 1-.728-.457l-.27-.216.139-.317c.122-.282.35-.684.685-1.09.447-.539.968-.924 1.575-1.075.1-.026.198-.044.3-.054.654-.078 1.326.102 1.982.441.326.17.578.34.729.46l.27.215-.14.318c-.121.28-.35.684-.685 1.088-.447.54-.969.925-1.575 1.077a2.393 2.393 0 0 1-.3.054zm-1.57-1.244c.512.265 1.02.401 1.465.349.064-.007.125-.018.187-.033.393-.099.765-.373 1.1-.778.145-.171.272-.359.382-.546a4.29 4.29 0 0 0-.276-.155c-.512-.266-1.02-.402-1.465-.35a1.557 1.557 0 0 0-.187.034c-.394.1-.766.373-1.101.777a4.31 4.31 0 0 0-.382.548c.08.051.175.103.276.157v-.003zm3.62-3.178a2.65 2.65 0 0 1-1.079.412 4.41 4.41 0 0 1-1.603-.064 3.693 3.693 0 0 1-.435-.111l-.328-.109.022-.347c.007-.104.027-.275.067-.49a4.77 4.77 0 0 1 .32-1.055c.233-.532.56-.968.997-1.265a2.662 2.662 0 0 1 1.08-.411 4.425 4.425 0 0 1 1.604.063c.196.04.346.081.435.112l.328.108-.023.348a4.391 4.391 0 0 1-.066.49 4.856 4.856 0 0 1-.32 1.055c-.234.532-.561.969-.998 1.264zm-1.222-.477c.278-.046.52-.136.719-.27.282-.19.509-.492.68-.88a4.01 4.01 0 0 0 .258-.86l.003-.013a3.554 3.554 0 0 0-1.252-.05c-.279.045-.52.135-.72.27-.282.19-.507.492-.679.881-.119.27-.203.564-.259.858l-.002.012c.422.087.858.114 1.252.05v.002zm.648-3.39a4.73 4.73 0 0 1-1.639.173l-.123-.01-.343-.04-.05-.342a2.364 2.364 0 0 1-.019-.18 4.762 4.762 0 0 1 .13-1.632c.13-.48.345-.896.662-1.226.326-.34.748-.573 1.237-.718a4.763 4.763 0 0 1 1.64-.174c.056.003.098.007.124.009l.343.04.051.342a4.74 4.74 0 0 1-.11 1.812c-.13.48-.345.897-.663 1.227-.326.339-.748.571-1.237.717l-.003.001zm-.256-.864c.35-.105.636-.265.845-.481.203-.212.35-.494.442-.837a3.82 3.82 0 0 0 .117-1.076 3.813 3.813 0 0 0-1.04.146c-.35.104-.638.263-.846.48-.202.211-.349.494-.44.835a3.773 3.773 0 0 0-.118 1.076 3.844 3.844 0 0 0 1.039-.144zm.824-4.528c-.274.476-.706.842-1.246 1.118a4.917 4.917 0 0 1-1.452.464l-.341.045-.133-.32a4.22 4.22 0 0 1-.167-.518c-.142-.541-.203-1.094-.135-1.625.045-.36.149-.694.32-.992.275-.476.706-.842 1.246-1.118a4.891 4.891 0 0 1 1.452-.465l.343-.045.132.32c.045.108.106.286.167.519.142.541.203 1.094.137 1.625-.045.36-.15.694-.322.992h-.001zm-1.654.313c.398-.203.7-.458.875-.764.108-.19.178-.408.207-.655.052-.4.003-.844-.112-1.282l-.015-.054a4.007 4.007 0 0 0-.803.3c-.397.202-.699.457-.875.765-.108.19-.177.407-.207.654-.052.399-.002.843.113 1.28l.014.055c.275-.072.55-.172.803-.3v.001zM21.798 48.613v102.774c0 .998.809 1.81 1.805 1.81h151.895c.998 0 1.805-.812 1.805-1.81V48.613a1.81 1.81 0 0 0-1.805-1.81H23.603c-.998 0-1.805.812-1.805 1.81zm-1.798 0A3.608 3.608 0 0 1 23.603 45h151.895a3.609 3.609 0 0 1 3.603 3.613v102.774a3.608 3.608 0 0 1-3.603 3.613H23.603A3.609 3.609 0 0 1 20 151.387V48.613zm14.382 5.845v91.084c0 .243.2.442.452.442h129.433a.446.446 0 0 0 .452-.442V54.458c0-.243-.2-.442-.452-.442H34.834a.446.446 0 0 0-.452.442zm-.899 0c0-.742.604-1.343 1.351-1.343h129.433c.746 0 1.351.598 1.351 1.343v91.084c0 .742-.604 1.343-1.351 1.343H34.834a1.346 1.346 0 0 1-1.35-1.343V54.458zm88.989 72.345v3.853l-.279-.049.011.049-4.394.972c.845.063 2.028.179 3.484.335.255.028.515.056.782.087.91.099 1.845.207 2.758.315l-1.618-2.93.001-.001 1.57-2.153-2.315-.478zm-45.564 3.804l-.279.049v-3.853l-2.314.478 1.569 2.153-1.617 2.931c.913-.108 1.848-.216 2.758-.315.267-.031.527-.059.782-.087 1.456-.156 2.639-.272 3.484-.335l-4.394-.972.01-.049zm44.216-6.979a118.963 118.963 0 0 0-6.023-1.104c-5.31-.834-10.617-1.335-15.551-1.335-4.935 0-10.241.5-15.55 1.336-1.86.292-3.587.606-5.135.92-.318.063-.614.126-.888.183v5.428c.303-.051.624-.103.961-.158 1.96-.318 4.04-.636 6.145-.933 1.68-.237 3.308-.45 4.86-.635 3.941-.47 7.212-.73 9.607-.73 2.394 0 5.665.26 9.607.73 1.552.184 3.18.398 4.86.635 2.104.298 4.183.615 6.145.934.337.054.658.109.962.158v-5.429z"/></svg>