<svg xmlns="http://www.w3.org/2000/svg" viewBox="0 0 200 200"><path fill="#FFF" d="M67.143 157.619h-7.62L54.02 172h91.295l-5.504-14.381h-7.905l-6.572 9.048c0 .19-.095.285-.285.285H71.714a.524.524 0 0 1-.476-.285l-4.095-9.048zm1.074 0L72 165.905h52.762l5.97-8.286H68.216zm-14.562 15.333l-1.75 4.572h95.524l-1.75-4.572H53.655zm20.094-79.844a.515.515 0 0 1 .251-.06h1.905a2.764 2.764 0 0 0 2.762-2.762v-10c0-.286.19-.476.476-.476s.476.19.476.476v10C79.619 92.38 78 94 75.905 94H74.19a.651.651 0 0 0-.666.667c0 .285-.286.476-.476.476-.286 0-.477-.19-.477-.476 0-.785.517-1.375 1.178-1.56zm.06-7.215a2.387 2.387 0 0 1 1.43-.464h1.428c.285 0 .476.19.476.476 0 .285-.19.476-.476.476h-1.429c-.762 0-1.428.667-1.428 1.429v2.761c0 .286-.286.477-.477.477-.285 0-.476-.19-.476-.477v-7.428c0-1.524 1.238-2.857 2.857-2.857h1.715c.285 0 .476.19.476.476s-.19.476-.476.476h-1.715a1.91 1.91 0 0 0-1.904 1.905v2.75zm-4 8.107H68c-2 0-3.714-1.619-3.714-3.714v-10c0-.286.19-.476.476-.476s.476.19.476.476v10A2.764 2.764 0 0 0 68 93.048h1.905c.047 0 .09.005.132.015.83.11 1.392.817 1.392 1.604 0 .285-.19.476-.477.476-.285 0-.476-.19-.476-.476A.651.651 0 0 0 69.81 94zm8.477 62.19h42.598c14.023-10.976 22.64-31.587 22.64-53.714 0-30.38-15.048-50.666-27.714-62.286-11.28-10.417-22.687-16.003-26.436-17.711 1.343 7.669-1.08 16.702-6.612 25.045C77.064 56.07 69 62.154 61.117 63.984c-4.676 10.91-6.927 21.57-6.927 32.587 0 23.62 9.715 47.62 24.096 59.62zm-2.368 0c-14.024-12.616-23.251-36.341-23.251-59.619 0-11.543 2.444-22.617 7.425-33.874a.625.625 0 0 1 .098-.316l27.452-41.177a.688.688 0 0 1 .072-.252c.19-.38.572-.571.953-.38.095.095 14.285 5.714 28.19 18.57 12.857 11.906 28.19 32.477 28.19 63.334 0 21.828-8.371 42.23-21.929 53.714h17.072c.286 0 .572.191.667.477l8.19 21.333a.585.585 0 0 1-.095.667c-.095.095-.285.285-.476.285H50.857c-.19 0-.476-.095-.571-.285-.096-.19-.19-.477-.096-.667l8.191-21.333a.716.716 0 0 1 .667-.477h16.87zM61.586 62.87c7.391-1.921 14.97-7.804 20.319-15.918 5.363-8 7.69-17.04 6.482-24.39L61.6 62.745a.629.629 0 0 1-.013.126zm62.7 52.082H75.048c-.286 0-.477-.19-.477-.476s.19-.476.477-.476h49.238c.285 0 .476.19.476.476s-.286.476-.476.476zm-15.238 12.381H90.19c-.285 0-.476-.19-.476-.476s.19-.476.476-.476h18.858c.285 0 .476.19.476.476s-.19.476-.476.476zM71.524 78.658v-2.182c0-.286.19-.476.476-.476s.476.19.476.476v2.022c1.186-.845 2.286-.974 2.286-.974.286 0 .476.19.476.38 0 .191-.19.477-.38.477 0 0-1.307.187-2.442 1.299a.426.426 0 0 1-.035.054c-.006.138-.069.164-.19.17h-.286c-.095 0-.286 0-.381-.094-1.143-1.143-2.476-1.334-2.476-1.334-.286 0-.477-.286-.381-.476 0-.286.285-.476.476-.381.08 0 1.18.136 2.38 1.04zM70.19 87.81c0-.762-.666-1.429-1.428-1.429h-1.429c-.285 0-.476-.19-.476-.476s.19-.476.476-.476h1.429c.54 0 1.033.171 1.428.464v-2.75a1.91 1.91 0 0 0-1.904-1.905H66.57c-.285 0-.476-.19-.476-.476s.19-.476.476-.476h1.715c1.524 0 2.857 1.238 2.857 2.857v7.428c0 .286-.19.477-.476.477s-.477-.19-.477-.477V87.81zm20.762-2.286c-.095-.095-.095-.286-.095-.381V80.38c0-.19 0-.286.095-.381.096-.095.19-.19.381-.19.19 0 .286.095.381.19.096.095.096.19.096.381v4.476h2.285c.19 0 .286 0 .381.095.095.096.19.19.19.381 0 .19-.095.286-.19.381-.095.096-.19.096-.38.096h-2.667c-.19-.191-.286-.191-.477-.286zm5.715-3.238h1.904c.19 0 .286 0 .381.095.096.095.19.19.19.38 0 .191-.094.287-.19.382-.095.095-.19.095-.38.095h-1.905v1.81h2.38c.191 0 .286 0 .382.095.095.095.19.19.19.38 0 .191-.095.287-.19.382-.096.095-.19.095-.381.095H96.38c-.095 0-.286 0-.381-.095-.095-.095-.095-.286-.095-.381v-4.762c0-.095 0-.286.095-.381.095-.095.286-.095.381-.095h2.667c.19 0 .285 0 .38.095.096.095.191.19.191.38 0 .191-.095.287-.19.382-.096.095-.19.095-.381.095h-2.381v1.048zm6.857.095h2.095c.19 0 .286 0 .381.095.095.095.19.19.19.381 0 .19-.095.286-.19.381-.095.095-.19.095-.381.095h-1.905v1.905c0 .19 0 .286-.095.381-.095.095-.19.19-.38.19-.191 0-.287-.095-.382-.19-.095-.095-.095-.19-.095-.38v-4.763c0-.095 0-.286.095-.38.095-.096.286-.096.381-.096h2.667c.19 0 .285 0 .38.095.096.095.191.19.191.381 0 .19-.095.286-.19.381-.096.095-.19.095-.381.095h-2.381v1.429zm3.905.286c0-1.238 0-1.81.571-2.381.381-.381.857-.572 1.524-.572.666 0 1.143.19 1.524.572.571.571.571 1.143.571 2.38 0 1.239 0 1.81-.571 2.382-.381.38-.858.571-1.524.571-.667 0-1.143-.19-1.524-.571-.476-.477-.571-1.143-.571-2.381zm2.19 2.19c.381 0 .667-.095.857-.38.286-.287.381-.667.381-1.81s-.095-1.524-.38-1.81c-.191-.19-.477-.38-.858-.38-.38 0-.667.094-.857.38-.286.286-.381.667-.381 1.81s.095 1.523.38 1.81c.191.285.477.38.858.38zm4.476.19c0 .191 0 .286-.095.382-.095.095-.19.19-.381.19-.19 0-.286-.095-.38-.19-.096-.096-.096-.19-.096-.381v-4.762c0-.19 0-.286.095-.476.095-.096.19-.096.381-.096.19 0 .381.096.476.381l2.572 3.81V80.38c0-.19 0-.286.095-.381.095-.095.19-.19.38-.19.191 0 .287.095.382.19.095.095.095.19.095.381v4.762c0 .19 0 .286-.095.38-.095.096-.19.096-.381.096-.19 0-.381-.095-.476-.38l-2.572-3.81v3.619zm8.667-4.57c-.095.094-.19.094-.381.094h-1.143v4.477c0 .19 0 .285-.095.38-.095.096-.19.191-.381.191-.19 0-.286-.095-.381-.19-.095-.096-.095-.19-.095-.381V80.57h-1.143c-.19 0-.286 0-.381-.095-.095-.095-.19-.19-.19-.38 0-.191.095-.286.19-.382.095-.095.19-.095.38-.095h3.144c.19 0 .285 0 .38.095.096.096.191.19.191.381 0 .19 0 .381-.095.381zm2.19 4.952c-.095.095-.19.19-.38.19-.191 0-.286-.095-.382-.19-.095-.096-.095-.19-.095-.381v-4.762c0-.19 0-.286.095-.381.096-.095.191-.19.381-.19s.286.095.381.19c.096.095.096.19.096.38v4.763c-.096.285-.096.285-.096.38zm-34.19 7.523l-.286.762c-.095.19-.095.286-.19.381-.096.095-.19.095-.286.095-.095 0-.286-.095-.286-.095-.19-.19-.095-.38 0-.571l1.81-4.762c.095-.19.095-.286.19-.286.096-.095.19-.095.286-.095.095 0 .286 0 .286.095.095.095.095.095.19.286l1.81 4.762a.607.607 0 0 1 0 .571c-.096.095-.19.095-.286.095-.095 0-.19 0-.286-.095-.095-.095-.095-.095-.19-.38l-.286-.763h-2.476zM92 89.62l-.952 2.571h1.904L92 89.62zm6.952-1.238c.096.095.096.19.19.286l1.048 3.81.953-3.81c.095-.19.095-.286.19-.381.096-.096.19-.096.286-.096.19 0 .381.096.381.286v.381l-1.143 4.762c0 .19-.095.286-.19.381-.096.095-.19.095-.286.095-.095 0-.19 0-.286-.095-.095-.095-.19-.19-.19-.381l-1.048-3.714-1.047 3.714c0 .19-.096.286-.191.381-.095.095-.19.095-.286.095-.095 0-.19 0-.285-.095-.096-.095-.19-.19-.19-.381l-1.144-4.762c-.095-.19-.095-.286 0-.38 0-.191.19-.287.381-.287.095 0 .19 0 .286.096.095.095.095.19.19.38l.953 3.81 1.047-3.81c0-.19.096-.19.19-.285.096-.095.191-.095.287-.095.095 0-.096 0-.096.095zm5.238 4.571l-.285.762c-.095.19-.095.286-.19.381-.096.095-.191.095-.286.095-.096 0-.286-.095-.286-.095-.19-.19-.095-.38 0-.571l1.81-4.762c.095-.19.095-.286.19-.286.095-.095.19-.095.286-.095.095 0 .285 0 .285.095.096.095.096.095.19.286l1.81 4.762a.607.607 0 0 1 0 .571c-.095.095-.19.095-.285.095-.096 0-.19 0-.286-.095-.095-.095-.095-.095-.19-.38l-.286-.763h-2.477zm1.143-3.333l-.952 2.571h1.905l-.953-2.571zm4 4v-4.762c0-.095 0-.286.096-.38.095-.096.285-.096.38-.096h1.715c1.143 0 1.81.762 1.81 1.714 0 .857-.477 1.334-1.144 1.524l1.048 1.81a.72.72 0 0 1 .095.38c0 .191-.095.286-.19.381-.095 0-.19.096-.286.096-.19 0-.286-.19-.476-.381l-1.238-2.19H110v1.904c0 .19 0 .286-.095.381-.095.095-.19.19-.381.19-.19 0-.286-.095-.381-.19.19-.095.19-.19.19-.381zm.953-4.667v1.905h1.333c.571 0 .952-.38.952-.952s-.38-.953-.952-.953h-1.333zm5.714-.666h1.524c.762 0 1.238.285 1.714.762.381.571.476 1.142.476 2.19s0 1.714-.476 2.19c-.38.477-.952.762-1.714.762H116c-.095 0-.286 0-.381-.095-.095-.095-.095-.285-.095-.38v-4.763c0-.095 0-.285.095-.38.095-.096.19-.286.381-.286zm.286 5.047h1.047c.381 0 .762-.095 1.048-.38.286-.286.286-.858.286-1.715 0-.857 0-1.428-.286-1.714-.286-.286-.571-.381-1.048-.381h-1.047v4.19zm8.095-.857c0-.286-.095-.476-.19-.571a4.643 4.643 0 0 0-.667-.286l-.667-.095c-.476-.095-.857-.19-1.143-.476a1.577 1.577 0 0 1-.476-1.143c0-1.048.762-1.715 2-1.715.572 0 .857.096 1.429.381.19.096.38.286.38.477 0 .095 0 .19-.095.285-.095.096-.19.096-.285.096-.096 0-.286-.096-.381-.096-.381-.19-.667-.285-1.048-.285-.667 0-1.048.38-1.048.952 0 .19.096.381.191.571.19.096.286.19.667.286l.666.095c.572.096.857.19 1.048.477.286.285.476.666.476 1.238 0 1.047-.857 1.714-2.095 1.714-.667 0-1.143-.095-1.62-.381-.285-.19-.38-.286-.38-.476 0-.095 0-.19.095-.286.095-.095.19-.095.286-.095.095 0 .19 0 .38.19.382.286.763.381 1.239.381.857-.285 1.238-.666 1.238-1.238zm-39.238 4.19c-.286 0-.476-.19-.476-.476v-18c0-.285.19-.476.476-.476s.476.19.476.476v18c0 .286-.19.477-.476.477zm45.524.382c-.286 0-.477-.19-.477-.477v-18c0-.285.191-.476.477-.476.285 0 .476.19.476.476v18c0 .286-.19.477-.476.477zm-37.715 44.666c.19 0 .286 0 .286.096.095.095.19.19.19.285 0 .095-.095.286-.19.286s-.19.095-.286.095h-2.19c-.19 0-.381 0-.476-.095-.096-.095-.096-.19-.096-.286 0-.19.096-.285.191-.476l1.81-2.286c.19-.285.38-.571.38-.952 0-.476-.285-.762-.761-.762-.381 0-.667.19-.858.667 0 .095-.095.19-.19.285 0 0-.095.096-.19.096-.096 0-.191 0-.286-.096-.096-.095-.096-.19-.096-.285 0-.286.191-.667.477-.857.285-.286.666-.381 1.143-.381.952 0 1.619.571 1.619 1.428 0 .572-.19.857-.572 1.334l-1.619 2h1.714v-.096zm3.524.762c-.857 0-1.524-.571-1.524-1.524v-2.38c0-.953.667-1.524 1.524-1.524s1.524.57 1.524 1.521v2.381c0 .858-.667 1.524-1.524 1.524zm.762-4c0-.476-.286-.857-.762-.857-.476 0-.762.381-.762.857v2.381c0 .476.286.857.762.857.476 0 .762-.38.762-.857v-2.38zm3.714-1.333c.096-.095.286-.19.381-.19.096 0 .19 0 .286.095.095.095.095.285.095.38v4.477c0 .19 0 .285-.095.38-.095.096-.19.191-.286.191-.095 0-.285-.095-.285-.19 0-.096-.096-.19-.096-.381v-3.81l-.571.572c-.095.095-.19.19-.286.19-.095 0-.285 0-.38-.095-.096-.095-.096-.19-.096-.286 0-.095.095-.19.19-.286l1.143-1.047zm4.858 5.333c-.953 0-1.715-.571-1.715-1.619 0-.667.381-1.047.762-1.238-.38-.19-.667-.571-.667-1.143 0-.952.667-1.524 1.62-1.524.857 0 1.619.572 1.619 1.524 0 .572-.286.953-.667 1.143.38.19.762.667.762 1.238 0 .953-.762 1.62-1.714 1.62zm0-2.571a.854.854 0 0 0-.858.857c0 .476.381.857.858.857a.854.854 0 0 0 .857-.857.854.854 0 0 0-.857-.857zm.857-1.429c0-.476-.381-.857-.762-.857s-.762.381-.762.857.38.857.762.857c.38-.095.762-.38.762-.857z"/></svg>