<svg xmlns="http://www.w3.org/2000/svg" viewBox="0 0 200 200"><path fill="#FFF" d="M161.578 92.723c0 27.293-21.452 49.836-49.107 53.29l2.67 6.046c11.2 2.764 20.764 9.156 27.053 17.965.086.087.172.26.172.346.086.173.172.345.172.518v6.478c0 .518-.344.863-.861.863H63.794c-.517 0-.862-.345-.862-.863v-6.478c0-.26.173-.518.431-.691 6.203-8.81 15.766-15.201 26.88-17.965l3.015-6.91c-18.35-4.059-33.944-16.928-40.923-34.72 0-.086-.086-.086-.086-.086 0 .086-.172.086-.258.172-.173.087-2.413.95-4.997.95-1.379 0-2.93-.259-4.308-1.122-3.79-2.332-4.221-8.12-4.221-8.378-.087-.346.172-.691.517-.864.172-.086 5.6-2.16 9.304.173a7.24 7.24 0 0 1 1.982 1.986 99.168 99.168 0 0 1-.776-4.577c-.172.086-2.154.863-4.48.863-1.292 0-2.757-.259-3.963-1.036-3.36-2.16-3.79-7.342-3.79-7.6-.087-.346.172-.692.516-.864.173-.087 5.083-1.987 8.443.172.259.087.517.346.776.519.69.604 1.206 1.295 1.637 2.072-.173-1.727-.431-3.54-.69-5.268-.258.086-.689.259-1.292.345-.689.173-1.464.26-2.326.26-1.12 0-2.326-.173-3.36-.864-2.93-1.9-3.274-6.305-3.274-6.478-.086-.345.173-.69.517-.864.172-.086 4.222-1.64 7.15.173.69.518 1.293 1.123 1.724 1.814-.258-1.728-.43-3.282-.603-4.75-.43.172-1.723.518-3.102.518-.947 0-1.981-.173-2.929-.778-2.584-1.554-2.843-5.44-2.843-5.614-.086-.345.172-.69.517-.863.172 0 3.79-1.469 6.29.172a3.99 3.99 0 0 1 1.464 1.469c-.086-.95-.172-1.469-.172-1.641v-.173c-1.034-.518-3.36-1.987-3.877-4.319-.69-2.936 1.895-5.873 1.981-5.96a.82.82 0 0 1 1.034-.258c.086 0 .258.086.517.259V45.306c0-.518.345-.863.861-.863.517 0 .862.345.862.863v15.979c.948.777 1.81 1.814 2.154 3.195.603 2.505-1.206 5.096-1.81 5.787.087.087.087.087.087.173.086.086.086.777.258 1.9.259-.777.517-1.555 1.12-2.16 1.982-2.331 5.859-1.986 6.031-1.986.345.087.69.346.775.691 0 .173.862 3.973-1.12 6.219-1.464 1.814-4.135 1.986-5.341 1.986h-.603c-.086-.086-.086-.086-.173-.086.259 1.987.517 4.319.862 6.823.086-1.382.43-3.023 1.465-4.232 2.24-2.591 6.633-2.245 6.806-2.245.172 0 .258 0 .344.086 5.945-21.765 25.933-37.657 49.28-37.657 5.687 0 11.2.863 16.456 2.677V31.66c-3.274-.26-16.025-1.21-28.69-2.16-21.366-1.64-27.569-2.245-29.464-2.677-.775-.173-.775-.345-.862-.604a.976.976 0 0 1 .259-.95c.172-.087.344-.173.517-.173l66.941-4.319a.93.93 0 0 1 .603.26.785.785 0 0 1 .259.604v24.443c17.49 9.5 28.344 27.379 28.344 46.64zM50.182 71.303c-.948 1.123-.948 3.024-.862 4.06 1.034 0 2.843-.26 3.877-1.382 1.034-1.123.948-3.023.861-4.06-1.033 0-2.843.26-3.876 1.383zm-8.616 4.32c1.206.863 3.102.517 4.136.172-.173-.95-.69-2.85-1.982-3.628-1.292-.777-3.188-.432-4.135-.172.172.95.689 2.85 1.981 3.627zm4.825 10.709c.172 0 .43-.086.603-.086-.172-1.123-.776-3.369-2.326-4.405-1.551-1.037-3.877-.605-4.997-.26.172 1.123.775 3.37 2.326 4.406 1.378.863 3.36.604 4.394.345zm-4.308 10.71c1.982 1.295 4.997.69 6.29.259-.173-1.21-.776-3.714-2.413-5.182-.172-.173-.345-.346-.517-.432-2.068-1.296-4.997-.605-6.29-.26.26 1.383.862 4.32 2.93 5.615zm9.219 1.295a122.44 122.44 0 0 0 1.033 6.046c.259-1.382.776-2.677 1.723-3.8 1.293-1.468 3.188-2.246 4.825-2.591-.43 0-.861-.086-1.292-.086-.259-.087-.517-.087-.776-.087-1.55.605-3.273.691-4.221.691h-.862a.657.657 0 0 1-.43-.173zm7.409-17.014c-.345 1.813-.603 3.713-.862 5.614 1.379-.173 2.413-.087 2.499-.087.344.087.689.346.775.691.086.26 1.206 5.355-1.465 8.378-.43.432-.861.777-1.378 1.123.69.086 1.378.086 1.81.086 3.79 0 7.495-.345 11.113-.95-1.206-3.8-2.068-8.723-2.068-14.683a39.27 39.27 0 0 1-4.566.26c-1.981 0-3.877-.173-5.858-.432zm17.575-28.848c8.185 1.123 16.886 3.628 25.243 7.514a44.191 44.191 0 0 0 4.566-10.796c-8.701-1.382-18.867-1.123-29.55 3.282h-.259zM60.778 106.37c1.81-2.073 1.551-5.614 1.379-7.083-1.465 0-4.997.26-6.806 2.332-1.896 2.16-1.551 5.614-1.379 7.083 1.465 0 4.997-.26 6.806-2.332zm2.93-8.033c0 .087.258 1.382.258 3.196h9.39a48.274 48.274 0 0 1-1.808-4.491c-2.671.432-5.342.69-8.099.864a.474.474 0 0 1 .259.431zm10.51 3.11v.086h21.194a86.502 86.502 0 0 1-7.237-9.76 66.674 66.674 0 0 1-15.852 5.096c.603 1.727 1.292 3.282 1.895 4.578zm22.314 0H98.6c.086-.087.086-.173.172-.173a63.017 63.017 0 0 0 14.733-10.364l-9.65-9.501c-4.48 3.973-9.477 7.341-14.904 9.932 2.24 3.542 4.738 6.824 7.495 10.02.086 0 .086 0 .086.086zm27.828-27.38c.172.173.172.432-.086.605-.086.086-.259.173-.345.173-.086 0-.172 0-.258-.087l-.345-.259c-2.584-2.159-5.428-4.145-8.27-6.046-3.016 4.664-6.634 8.81-10.684 12.524l9.65 9.5a65.098 65.098 0 0 0 9.821-11.918c.086-.173.345-.26.517-.173l.086-4.578V54.893h-.258a35.772 35.772 0 0 0-1.81-.863c-1.723 4.836-3.963 9.414-6.72 13.646 2.93 1.9 5.687 3.973 8.357 6.132l.345.26zm-.258 26.084l.344-20.815c-2.757 4.232-6.03 8.119-9.65 11.66l9.306 9.155zm-20.247-19.865c4.05-3.714 7.668-7.86 10.597-12.35-4.049-2.592-8.27-4.924-12.664-6.91a45.517 45.517 0 0 1-7.84 9.414l9.907 9.846zm-10.51-10.45a44.177 44.177 0 0 0 7.667-9.242c-7.926-3.628-16.197-6.046-24.209-7.169l16.542 16.41zm-.69.518L75.942 53.77a80.729 80.729 0 0 0 5.686 23.492 41.667 41.667 0 0 0 11.027-6.91zm.603.604a43.008 43.008 0 0 1-11.372 7.169c1.81 4.318 4.05 8.55 6.548 12.523 5.341-2.59 10.252-5.959 14.732-9.846l-9.908-9.846zm20.85 20.643c-4.136 3.8-8.702 7.168-13.699 9.846h23.693v-.087h-.087l-9.907-9.76zm10.424-37.571v-7.255a77.722 77.722 0 0 1-1.809 6.391c.603.345 1.206.605 1.81.864zm-.43-9.415c-.087 0-.259-.086-.259-.345a47.89 47.89 0 0 0-15.594-2.85c-.172 2.418-.603 4.664-1.12 6.91 5.859 1.036 10.856 2.763 14.819 4.404.861-2.591 1.637-5.355 2.154-8.119zm-2.499 8.983c-3.877-1.641-8.96-3.369-14.646-4.405-1.12 3.887-2.67 7.6-4.652 10.969 4.307 2.073 8.615 4.405 12.664 6.996 2.671-4.232 4.911-8.723 6.634-13.56zm-40.75 24.097c-3.016-7.428-4.911-15.028-5.687-22.802C71.548 65 70.083 73.55 69.996 80.545a45.666 45.666 0 0 0 10.856-2.85zm.344.777c-3.532 1.469-7.323 2.419-11.114 2.937 0 5.96.862 10.796 2.068 14.596 5.427-1.036 10.683-2.677 15.594-5.009-2.585-3.973-4.739-8.205-6.548-12.524zM59.658 88.578c-1.378 0-4.393.259-5.944 1.986-1.55 1.814-1.379 4.923-1.206 6.219 1.378 0 4.394-.173 5.944-1.987 1.637-1.814 1.379-4.923 1.206-6.218zm72.628 22.024H54.49c8.013 18.051 26.191 29.625 47.04 29.625 28.345 0 51.434-22.802 51.434-50.786 0-15.546-7.41-30.402-19.815-39.989v60.286c0 .518-.345.864-.862.864zM75.338 26.219c12.32 1.036 33.514 2.677 49.28 3.8.431 0 .776.432.776.864v11.4c.086.087.086.173.086.26v31.179l-.517 28.157c0 .259-.172.431-.43.431H63.965c-.086 1.728-.603 3.714-1.895 5.183-.517.604-1.034 1.036-1.637 1.381h70.99V22.591L75.339 26.22zm32.05 15.287h-.173c-10.683 0-20.59 3.455-28.689 9.242 9.994-3.628 19.557-3.8 27.742-2.505.517-2.16.947-4.405 1.12-6.737zM74.735 53.771c-7.84 6.823-13.526 16.15-15.766 26.774 1.896.173 3.791.346 5.686.346a39.3 39.3 0 0 0 4.567-.26c.086-7.34 1.55-16.237 5.513-26.86zM51.991 80.63c-1.12 1.382-1.12 3.628-.948 4.924 1.12 0 3.532-.173 4.739-1.641 1.206-1.382 1.12-3.8.947-4.923-1.12 0-3.532.259-4.738 1.64zm-1.81 6.651c-.172 0-.344-.086-.689-.345.345 2.418.69 4.923 1.034 7.255.086-1.641.517-3.455 1.723-4.837 1.034-1.123 2.413-1.814 3.791-2.16.086-.518.086-.95.172-1.468-1.723 1.382-4.135 1.555-5.341 1.555h-.69zM43.72 65.776c.345 1.468 1.895 2.505 2.757 3.023.603-.864 1.55-2.505 1.206-3.973-.345-1.468-1.895-2.505-2.757-3.023-.603.864-1.55 2.505-1.206 3.973zm-.172 43.098c2.326 1.555 5.772.691 7.15.26-.172-1.469-.947-4.923-3.273-6.392-2.327-1.468-5.773-.69-7.151-.259.172 1.468.948 4.923 3.274 6.391zm19.47 16.152c10.339 12.178 25.76 19.606 42.302 19.692 29.982 0 54.45-23.32 54.45-51.995 0-18.396-10.167-35.411-26.622-44.74v.346c12.923 9.76 20.677 25.048 20.677 41.112 0 28.502-23.434 51.65-52.296 51.65-15.163 0-28.947-5.96-38.51-16.065zm1.637 51.39h76.16v-5.183h-76.16v5.183zm75.643-6.133c-6.116-8.291-15.421-14.25-26.19-16.842H91.363c0 .087-.086.087-.086.087-10.683 2.504-19.902 8.464-26.019 16.755h75.04zm-26.793-17.792l-2.757-6.218a54.212 54.212 0 0 1-5.342.259c-3.532 0-6.978-.346-10.338-.95l-3.102 6.996v.086h21.539v-.173zm-28.431-35.239h1.723v13.56h-1.723v-13.56zm7.754 9.242l-1.206 4.232h-1.81l4.566-13.56h2.068l4.566 13.56h-1.895l-1.465-4.232h-4.824zm1.723-5.269l-1.379 3.973h4.05l-1.293-3.886c-.258-.95-.517-1.728-.689-2.505-.172.777-.43 1.555-.69 2.418zm10.941 3.455v6.132h-1.809v-13.56h7.323v1.469h-5.514v4.49h5.083v1.47h-5.083zm11.373 6.132v-12.091h-4.136v-1.469h9.994v1.469h-4.135v12.091h-1.723z"/></svg>