<svg xmlns="http://www.w3.org/2000/svg" viewBox="0 0 200 200"><path fill="#FFF" fill-rule="evenodd" d="M75.417 106.521c0 .515-.187.917-.56 1.21-.372.291-.886.438-1.542.438-.654 0-1.19-.102-1.609-.304v-.893c.266.124.547.22.844.293.297.072.574.106.83.106.376 0 .653-.072.831-.213a.695.695 0 0 0 .267-.573.712.712 0 0 0-.245-.548c-.163-.151-.502-.33-1.014-.534-.529-.214-.902-.459-1.118-.73a1.549 1.549 0 0 1-.325-.99c0-.481.171-.86.514-1.138.345-.276.805-.413 1.384-.413.556 0 1.11.12 1.658.362l-.301.77c-.514-.215-.974-.323-1.38-.323-.307 0-.538.066-.697.2a.654.654 0 0 0-.237.526c0 .15.032.279.095.387a.967.967 0 0 0 .313.3c.144.096.406.221.785.377.426.176.738.341.935.494.199.153.343.324.437.517.093.191.14.418.14.678l-.005.001zm4.882 1.569h-.939v-2.686c0-.337-.067-.589-.203-.755-.136-.165-.352-.248-.648-.248-.39 0-.678.117-.861.349-.184.233-.276.623-.276 1.17v2.17h-.931v-6.147h.932v1.56c0 .25-.015.519-.047.803h.06c.125-.21.303-.374.529-.49.227-.117.49-.174.792-.174 1.061 0 1.592.533 1.592 1.6v2.848zm5.181-2.193c0 .714-.183 1.272-.55 1.672-.368.4-.88.6-1.533.6-.41 0-.773-.093-1.087-.277a1.82 1.82 0 0 1-.725-.794c-.17-.345-.255-.746-.255-1.2 0-.708.183-1.26.549-1.659.364-.397.878-.596 1.542-.596.633 0 1.137.203 1.506.611.37.405.554.953.554 1.645v-.002zm-3.19 0c0 1.01.373 1.513 1.121 1.513.74 0 1.11-.503 1.11-1.512 0-.998-.372-1.496-1.117-1.496-.392 0-.675.128-.85.386-.177.258-.264.63-.264 1.11v-.001zm7.856 2.193l-.568-2.039c-.068-.215-.192-.717-.372-1.504h-.036c-.153.71-.274 1.215-.364 1.512l-.584 2.032h-1.03l-1.227-4.369h.95l.56 2.153c.126.53.216.987.27 1.366h.023c.027-.192.066-.413.12-.661.055-.25.101-.436.141-.56l.666-2.299h1.023l.645 2.299c.04.13.09.327.15.593.06.265.095.472.106.62h.031c.04-.323.132-.777.277-1.359l.568-2.153h.935l-1.236 4.369h-1.048zm4.074 0h-.938v-5.775h3.269v.798h-2.33v1.805h2.184v.802H94.22v2.37zm4.257-2.232l-1.47-2.137h1.062l.998 1.528 1.007-1.528h1.055l-1.475 2.137 1.55 2.232h-1.054l-1.083-1.636-1.077 1.636h-1.056l1.543-2.232zm11.051 2.232h-1.03l-.982-3.445c-.042-.15-.096-.366-.159-.65a7.368 7.368 0 0 1-.115-.59 12.563 12.563 0 0 1-.277 1.257l-.96 3.428h-1.03l-.748-2.892-.763-2.883h.968l.828 3.365c.131.54.223 1.016.28 1.43a8.84 8.84 0 0 1 .13-.751c.057-.276.11-.5.158-.672l.942-3.373h.94l.967 3.388c.092.315.19.782.292 1.407.04-.377.135-.856.286-1.438l.825-3.357h.96l-1.512 5.776zm6.12-2.193c0 .714-.184 1.272-.552 1.672-.367.4-.878.6-1.533.6-.41 0-.772-.093-1.086-.277a1.827 1.827 0 0 1-.726-.794c-.17-.345-.255-.746-.255-1.2 0-.708.183-1.26.548-1.659.364-.397.878-.596 1.542-.596.633 0 1.137.203 1.507.611.37.405.553.953.553 1.645l.002-.002zm-3.191 0c0 1.01.373 1.513 1.121 1.513.74 0 1.11-.503 1.11-1.512 0-.998-.372-1.496-1.119-1.496-.39 0-.673.128-.848.386-.177.258-.264.63-.264 1.11v-.001zm6.485-2.255a2.2 2.2 0 0 1 .463.04l-.09.865a1.785 1.785 0 0 0-.414-.048c-.372 0-.674.121-.905.364-.231.243-.347.557-.347.944v2.283h-.931v-4.369h.729l.122.77h.048c.144-.26.336-.467.568-.62a1.36 1.36 0 0 1 .756-.229h.001zm2.207 4.448h-.932v-6.147h.931v6.147h.001zm2.809.079c-.547 0-.974-.198-1.28-.593-.308-.396-.46-.949-.46-1.663 0-.716.155-1.274.466-1.672.31-.4.74-.599 1.29-.599.577 0 1.015.212 1.317.636h.047a5.553 5.553 0 0 1-.068-.744v-1.59h.935v6.146h-.73l-.161-.573h-.046c-.297.434-.735.652-1.311.652zm.25-.75c.384 0 .663-.108.839-.322.173-.216.263-.563.267-1.046v-.13c0-.55-.09-.941-.268-1.173-.18-.232-.463-.347-.845-.347a.859.859 0 0 0-.758.395c-.177.266-.265.643-.265 1.133 0 .485.084.854.256 1.108.171.254.43.38.773.38v.001zM77.5 153.525l-12.47 24.676h68.134l-12.54-24.816.003-.005-2.217-3.728c-4.544 5.754-11.625 9.223-19.313 9.223-7.564 0-14.54-3.357-19.09-8.946l-2.485 3.612-.022-.016zm-.89-1.838l2.385-3.467-20.487-41.013-2.086 3.786c-.75 1.363-.74 3.673.021 5.02l20.167 35.674zM58.608 105.14l35.227-73.371-37.362 64.41c-.776 1.338-.798 3.64-.05 4.997l2.185 3.964zm40.54-82.358l-40.091 83.506L79.58 147.37l3.23-4.697.767.716c4.207 3.922 9.898 6.17 15.977 6.17 6.072 0 11.76-2.24 15.962-6.156l.82-.762 2.706 4.55 20.65-41.11-38.3-79.431-2.243-3.87zm8.179 14.1l32.903 68.24 1.736-3.782c.659-1.43.547-3.798-.243-5.161L107.327 36.88zm32.897 70.152l-20.635 41.076 2.06 3.464 20.103-35.56c.775-1.373.875-3.747.214-5.187l-1.742-3.793zM136.094 180H62.102l13.425-26.566-20.655-36.538c-1.068-1.89-1.082-4.86-.03-6.768l2.227-4.044-2.227-4.044c-1.052-1.908-1.022-4.878.07-6.76l42.726-73.658c.727-1.254 2.199-1.249 2.922 0l42.726 73.657c1.082 1.867 1.222 4.848.322 6.81l-1.835 3.994 1.835 3.994c.902 1.962.776 4.942-.283 6.816l-20.655 36.538L136.094 180zm-18.177-31.178l-2.002-3.365c-4.442 3.766-10.223 5.9-16.361 5.9h.001c-6.17 0-11.98-2.155-16.43-5.96l-2.585 3.758c4.373 5.504 11.174 8.823 18.559 8.823 7.532 0 14.457-3.453 18.818-9.156zm7.964-52.514c-7.017-7.955-16.59-12.937-26.415-12.937-9.188 0-18.207 4.442-25.192 11.658 8.06-5.402 16.443-8.458 24.85-8.458 9.22 0 18.385 3.563 26.757 9.737zM99.466 82.472c11.341 0 22.313 6.43 29.606 16.364l2.192 2.987-2.846-2.378C119.38 91.9 109.265 87.47 99.124 87.47c-9.317 0-18.646 3.862-27.542 10.583l-2.96 2.236 2.336-2.877c7.422-9.132 17.83-14.94 28.51-14.94h-.002zm-29.987 30.562c0 .251.199.45.451.45h57.424a.455.455 0 0 0 .45-.45.446.446 0 0 0-.45-.45H69.93a.455.455 0 0 0-.45.45h-.002zm-.902 0c0-.745.614-1.349 1.353-1.349h57.424a1.347 1.347 0 1 1 0 2.697H69.93a1.347 1.347 0 0 1-1.353-1.348zm15.844-14.23l-3.14-1.671-3.276 3.189-.632-.643 3.75-3.65 3.197 1.704 7-5.609 7.131 4.978 7.76-5.722 6.535 3.495 2.958-1.956.498.75-3.41 2.252-6.505-3.48-7.822 5.768-7.108-4.961-6.936 5.556z"/></svg>