<svg xmlns="http://www.w3.org/2000/svg" viewBox="0 0 200 200"><path fill="#FFF" fill-rule="evenodd" d="M106.878 98.997l.023.02a3.23 3.23 0 0 0-.252.335 7.68 7.68 0 0 0-.673 1.238c-.635 1.444-1.02 3.245-1.02 5.431 0 2.931.998 4.788 3.691 7.793l.905 1.002c3.61 4.016 5.09 6.877 5.09 11.717 0 3.274-.446 6.174-1.194 8.672a22.604 22.604 0 0 1-.613 1.79c.68.162 1.404.55 1.801.993l3.891 4.353c.53.592.96 1.722.96 2.516v20.01h2.907a2.899 2.899 0 0 1 2.906 2.895v10.6H72.988v-10.6a2.896 2.896 0 0 1 2.906-2.895h2.905v-20.01h.001c0-.796.436-1.93.96-2.515l3.893-4.354c.53-.592 1.609-1.072 2.42-1.072h.316a23.036 23.036 0 0 1-.582-1.71c-.749-2.499-1.194-5.399-1.194-8.672 0-4.84 1.48-7.701 5.09-11.717l.906-1.004c2.693-3.004 3.691-4.862 3.691-7.792 0-2.186-.385-3.987-1.02-5.431a7.8 7.8 0 0 0-.672-1.238 3.34 3.34 0 0 0-.252-.335h.002l.046-.042c-3.015-1.992-7.822-5.81-11.914-11.958-2.152-2.723-8.075-10.076-8.87-11.084-2.913-3.672-4.85-6.29-6.51-8.867-5.838-9.053-8.396-18.123-10.943-39.02l-.049-.4a18.347 18.347 0 0 1-.104-1.88c-.01-.7.002-1.45.029-2.185.01-.336.022-.592.029-.725a1.984 1.984 0 0 1 1.972-1.892h5.929a1.91 1.91 0 0 1 1.91 1.97l-.008.26c-.025.94-.006 2.136.088 3.49.135 1.978.41 3.921.852 5.733 1.292 5.27 3.726 8.49 7.59 8.96V36.8c0-.399-.314-.836-.68-.97l-2.998-1.092c-.376-.135-.681-.565-.681-.97V23.47h62.97v10.297c0 .4-.314.838-.681.971l-2.998 1.093c-.376.137-.68.565-.68.97v4.618c4.125-.268 6.7-3.532 8.04-9.004.444-1.81.718-3.755.853-5.733.094-1.354.113-2.55.088-3.49-.003-.13-.007-.217-.01-.286a1.906 1.906 0 0 1 1.913-1.943h5.929c1.053 0 1.93.846 1.971 1.88a46.209 46.209 0 0 1 .058 2.924c-.01.735-.042 1.368-.104 1.88-2.538 20.97-5.219 30.213-11.296 39.428-1.682 2.552-3.62 5.125-6.613 8.862.226-.281-6.524 8.057-8.917 11.085-4.191 6.317-8.75 10.03-11.691 11.975zm-3.035 1.735a4.606 4.606 0 0 1-.104.046c-2.302 1.29-6.033 1.31-8.322-.043.522 1.501.822 3.262.822 5.287 0 3.513-1.203 5.75-4.185 9.075-.176.197-.796.883-.906 1.005-1.465 1.629-2.53 3.018-3.266 4.428h23.493c-.735-1.41-1.801-2.8-3.265-4.429a145.99 145.99 0 0 1-.906-1.005c-2.982-3.325-4.185-5.56-4.185-9.075 0-2.028.3-3.788.824-5.29zM82.077 85.907l.003.004a41.58 41.58 0 0 0 3.479 4.53 40.525 40.525 0 0 0 7.382 6.565c.872.6 1.679 1.1 2.397 1.502.419.234.705.38.837.443l.191.102c1.65 1.005 4.675 1.021 6.423.044l.194-.097c.138-.057.447-.204.9-.45a26.95 26.95 0 0 0 2.638-1.649c2.776-1.947 5.563-4.53 8.173-7.826a46.122 46.122 0 0 0 2.582-3.612c1.507-2.334 2.793-5.054 3.87-8.085 1.376-3.87 2.344-8.038 2.97-12.209.22-1.462.38-2.818.492-4.032.04-.422.068-.796.09-1.116.012-.187.02-.312.02-.28v-4.078H74.344v4.01l.024.288c.027.305.062.66.105 1.06.124 1.15.29 2.435.505 3.82.616 3.951 1.499 7.898 2.693 11.566 1.142 3.508 2.511 6.573 4.116 9.057.096.149.192.296.29.443zm44.58-42.556v16.394s-.46 9.658-3.964 19.046c1.871-2.32 3.39-4.195 3.278-4.056 2.96-3.695 4.864-6.226 6.508-8.717 5.883-8.92 8.487-17.898 10.993-38.602.051-.43.08-1.003.09-1.677a45.014 45.014 0 0 0-.027-2.092c-.012-.322-.022-.567-.066-.755h-5.904c.004.057.007.144.01.25a40.03 40.03 0 0 1-.091 3.672c-.143 2.08-.432 4.13-.905 6.057-1.532 6.259-4.698 10.217-9.923 10.48zm-50.17 35.563c-3.374-9.216-4.082-19.17-4.082-19.17V43.32c-4.957-.463-7.984-4.37-9.472-10.447-.472-1.926-.762-3.976-.903-6.058a39.347 39.347 0 0 1-.091-3.672v.001c.004-.116.007-.206.01-.25 0 0-5.94.025-5.94.052-.008.136-.02.38-.03.703a42.475 42.475 0 0 0-.027 2.092c.01.674.039 1.247.091 1.677l.049.398c2.515 20.635 5 29.45 10.648 38.212 1.62 2.512 3.524 5.085 6.399 8.713.354.447 1.736 2.166 3.348 4.174zm45.326-35.781v11.566h2.905V43.133h-2.906zm-.97 0h-8.718v11.566h8.719V43.133zm-9.687 0H100.5v11.566h10.656V43.133zm-11.625 0H86.937v11.566h12.594V43.133zm-13.562 0h-7.75v11.566h7.75V43.133zm-8.719 0h-2.776v11.566h2.776V43.133zm-2.906-.964h50.374V36.8c0-1.214.814-2.364 1.952-2.78l1.444-.526H70.947l1.445.526c1.131.413 1.952 1.573 1.952 2.78v5.369zm-4.36-10.603h59.093v-6.168H69.983v6.168zm29.16 105.35v-15.422h-3.298c-.102.458-.205.962-.301 1.499a28.227 28.227 0 0 0-.409 3.304 15.866 15.866 0 0 0-.022 1.465c.034.98.162 2.39.366 4.11a182.756 182.756 0 0 0 .678 5.043h2.986zm.968 0h2.986a182.756 182.756 0 0 0 .678-5.043c.204-1.72.333-3.13.367-4.111.016-.457.006-.947-.023-1.465a28.227 28.227 0 0 0-.409-3.304 34.717 34.717 0 0 0-.301-1.499h-3.298v15.422zm-4.934 0l-.06-.414a209.62 209.62 0 0 1-.4-2.891c-.072-.56-.14-1.104-.201-1.626-.206-1.747-.337-3.178-.372-4.191a17.605 17.605 0 0 1 .024-1.552c.062-1.09.213-2.246.422-3.419.084-.47.173-.916.263-1.329h-3.386c-.028.038-.06.081-.094.131a6.26 6.26 0 0 0-.558 1.01c-.608 1.37-.93 3.13-.806 5.315.112 1.952.475 4.015 1.008 6.082a40.447 40.447 0 0 0 .865 2.884h3.295zm-4.317 0l-.045-.134a39.852 39.852 0 0 1-.736-2.51c-.55-2.12-.92-4.246-1.036-6.265-.134-2.339.217-4.25.887-5.761a8.18 8.18 0 0 1 .379-.752h-2.877c-.613 1.494-.882 3.076-.882 5.04 0 3.08.418 5.799 1.114 8.121a18.182 18.182 0 0 0 .83 2.26h2.366zm13.217 0h3.295l.147-.436c.244-.742.489-1.565.718-2.448.533-2.067.896-4.13 1.008-6.082.124-2.185-.198-3.945-.806-5.316a6.26 6.26 0 0 0-.652-1.14h-3.386c.09.413.18.859.264 1.33.208 1.172.359 2.329.421 3.418.031.545.04 1.064.024 1.552-.035 1.013-.165 2.444-.372 4.19-.06.523-.129 1.068-.201 1.627a209.62 209.62 0 0 1-.4 2.891l-.06.414zm4.317 0h2.368l.075-.172c.256-.586.512-1.283.754-2.09.696-2.323 1.114-5.04 1.114-8.121 0-1.963-.269-3.545-.882-5.039h-2.877c.124.216.252.466.378.752.67 1.51 1.021 3.422.888 5.76-.117 2.02-.488 4.145-1.037 6.266a39.852 39.852 0 0 1-.781 2.644zm14.967 39.518v-8.672a.966.966 0 0 0-.968-.967h-46.5a.963.963 0 0 0-.969.967v8.672h48.437zm-5.812-11.567v-20.01c0-.322-.257-.996-.47-1.233l-3.892-4.354c-.157-.175-.723-.427-.974-.427h-26.14c-.26 0-.811.245-.974.427l-3.893 4.353c-.21.233-.47.913-.47 1.234v20.01h36.813zm-32.938-18.79v14.45a.48.48 0 0 0 .488.485h28.098a.484.484 0 0 0 .477-.486v-14.45a.479.479 0 0 0-.484-.486H85.097a.484.484 0 0 0-.485.486zm-.968 0c0-.8.647-1.45 1.453-1.45h28.094c.802 0 1.453.638 1.453 1.45v14.45c0 .8-.652 1.449-1.446 1.449H85.1a1.446 1.446 0 0 1-1.456-1.45v-14.45zm8.538 3.862c-.779 0-1.392.275-1.838.824-.446.55-.669 1.31-.669 2.277 0 1.012.213 1.777.643 2.297.43.52 1.052.78 1.864.78.353 0 .693-.035 1.022-.105.33-.07.67-.16 1.027-.268v1.156c-.65.246-1.389.368-2.213.368-1.215 0-2.148-.366-2.8-1.098-.65-.733-.976-1.78-.976-3.143 0-.857.158-1.61.475-2.253a3.36 3.36 0 0 1 1.37-1.48c.599-.344 1.3-.514 2.106-.514.848 0 1.631.177 2.35.53l-.488 1.125a7.584 7.584 0 0 0-.888-.347c-.31-.1-.64-.15-.985-.15v.001zm9.332 1.456c0 .863-.284 1.525-.852 1.983-.567.46-1.376.69-2.422.69h-.862v3.089H96.02V148.9h2.39c1.036 0 1.813.21 2.33.633.517.42.774 1.042.774 1.863v-.001zm-4.137 1.537h.72c.698 0 1.208-.12 1.533-.361.326-.241.488-.617.488-1.13 0-.474-.145-.829-.436-1.06-.292-.234-.746-.352-1.364-.352h-.941v2.903zm10.944 4.225l-.83-2.294h-3.172l-.812 2.294h-1.43l3.104-8.291h1.476l3.105 8.29h-1.441zm-1.187-3.457l-.778-2.247c-.056-.15-.136-.388-.235-.712-.1-.324-.17-.56-.208-.713-.101.465-.252.97-.448 1.52l-.749 2.152h2.418z"/></svg>