<svg xmlns="http://www.w3.org/2000/svg" viewBox="0 0 200 200"><path fill="#FFF" d="M99.247 80.19c-12.67-.084-23.396-10.92-23.311-23.619 0-6.264 2.618-12.36 7.179-16.846 4.476-4.318 10.388-6.773 16.3-6.603 6.25-.085 12.078 2.37 16.555 6.857 4.476 4.571 7.01 10.751 6.925 17.1-.169 12.614-10.98 23.111-23.48 23.111h-.168zm2.871-45.121c-.084.17-.169.423-.338.592.085.932.507 1.524 1.352 1.947.338.17.591.254.929.424.253.084.422.17.675.254l.17.084c.253.17.506.254.76.424.422.254.675.677.675 1.185s-.253.931-.675 1.27c-.254.169-.507.338-.845.508-1.69.677-2.703 2.116-2.956 4.232 0 .424-.085.847-.085 1.27 0 .593.423 1.1 1.014 1.185 0-.084.084-.084.253-.169.423-.254.76-.592 1.183-.846.675-.508 1.351-1.016 2.111-1.44.676-.423 1.52-.761 2.28-1.015.507-.17 1.183-.17 1.69.169.675.423 1.351 1.016 1.942 1.693.338.423.338.762.338 1.016 0 .338-.253.677-.675 1.016-1.014.677-2.196.93-3.463.508-.338-.17-.592-.17-.93-.254l-.337-.085c-.254-.085-.507-.085-.76-.085-.93 0-1.774.424-2.365 1.27-1.183 1.693-1.605 3.64-1.267 6.01.169.932.676 1.61 1.605 1.948.675.17 1.435.423 2.111.592.676.17 1.351.34 2.027.593 1.014.339 1.943.677 2.703 1.27 1.52 1.016 2.027 2.709 1.69 4.995-.085.762-.339 1.523-.508 2.285-.169.593-.338 1.186-.422 1.778-.084.677-.084 1.355-.084 1.947 0 0 0 .085.084.085.507 0 .676-.085.76-.17a14.822 14.822 0 0 0 1.943-2.031c2.449-3.386 4.138-6.688 5.067-9.99.591-1.947 0-3.555-1.604-4.825l-.338-.254c-.507-.339-1.014-.677-1.436-1.1-.676-.593-1.098-1.44-1.014-2.37.085-.593.254-.932.592-1.101.337-.085.76 0 1.182.338.422.339.76.677 1.098 1.016l.845.847c.253.338.506.508.76.762.253.169.506.254.675.254.254 0 .423-.17.592-.508l.253-.424c0-.084.084-.169.169-.169-.93-4.233-3.04-8.212-6.166-11.344-3.462-3.47-7.854-5.672-12.5-6.35l-.337.34c-.17.169-.338.253-.423.423zm-2.702-1.1c-2.027-.085-4.139.253-5.744.677l.507.423c1.351 1.016 2.196 1.947 2.787 2.963.76 1.439.93 2.709.254 3.979-.338.592-.592 1.27-.93 1.862-.506.931-.929 1.862-1.435 2.794-.254.592-.76 1.016-1.183 1.439-.253.254-.59.423-.844.677-.338.254-.676.508-.93.762a3.133 3.133 0 0 0-.422.931c-.084.254 0 .593 0 .931v.508c.085.847-.253 1.355-.929 1.524-.169.085-.338 0-.422-.085l-.422-.423c-.254-.338-.592-.592-.845-.931-.507-.593-1.013-.847-1.52-.847-.17 0-.422.085-.507.17-.845.931-1.013 2.793-.338 3.894.676 1.1 1.605 2.032 2.787 2.624.338.17.76.339 1.183.339.844 0 1.689.085 2.534.085.76 0 1.435.084 2.196.084 1.35 0 2.449.593 3.125 1.609 1.52 2.285 2.111 4.74 1.773 7.365-.338 1.947-1.351 3.64-2.28 5.164-1.014 1.693-1.943 3.386-2.787 4.825a3.133 3.133 0 0 0-.423.931c0 .17-.084.254-.084.339 1.69.423 3.378.677 5.152.677h.169c12.078 0 22.382-10.158 22.635-22.264 0-1.355-.084-2.71-.338-4.064-.338.508-.676.762-1.098.847-.422.084-.844-.085-1.351-.424-.338-.253-.591-.507-.845-.761-.169-.17-.253-.339-.422-.424l-.422-.423c-.338-.339-.676-.677-1.014-.931-.169-.17-.338-.17-.338-.17s-.084.17-.084.424c0 .677.253 1.27.76 1.693.422.423.929.762 1.351 1.1l.338.254c1.943 1.44 2.618 3.471 1.943 5.757-1.014 3.386-2.703 6.773-5.237 10.243-.591.762-1.351 1.524-2.027 2.117-.338.254-.76.423-1.436.423-.422 0-.929-.508-.929-.931-.084-.677-.084-1.44.085-2.117.084-.677.253-1.27.422-1.862.169-.677.422-1.44.507-2.201.253-1.947-.17-3.386-1.352-4.233-.675-.508-1.604-.846-2.449-1.1a27.295 27.295 0 0 0-2.111-.593c-.676-.254-1.436-.423-2.112-.677-1.182-.423-2.027-1.355-2.196-2.625-.338-2.54.085-4.74 1.436-6.603 1.014-1.354 2.365-1.862 4.054-1.524l.253.085c.254.085.592.17.93.254 1.098.339 1.942.17 2.787-.423.169-.085.338-.254.338-.423 0-.085-.085-.17-.17-.34-.506-.592-1.182-1.1-1.773-1.523-.169-.17-.676-.17-.93-.085-.675.254-1.435.508-2.026.932-.76.423-1.436.93-2.112 1.439-.422.254-.76.592-1.182.846-.169.085-.507.339-.845.254-.929-.084-1.689-1.016-1.689-2.031 0-.424 0-.932.085-1.355.253-2.37 1.435-4.063 3.462-4.91.254-.085.507-.17.676-.339a.734.734 0 0 0 .338-.592c0-.254-.084-.423-.338-.593-.169-.17-.338-.254-.591-.338l-.169-.085c-.253-.085-.422-.17-.676-.254-.253-.17-.59-.254-.929-.423-1.098-.508-1.773-1.44-1.858-2.625-.084-.508.17-.846.254-1.1.084-.17.253-.339.422-.508-.845-.085-1.605-.085-2.45-.085zm-15.71 6.348c-2.618 2.625-4.56 5.757-5.659 9.228.085.085.17.17.17.254 0 .17.084.339.084.593.084.423.169.93.253 1.354.338 1.016 1.014 1.862 2.196 2.54.76.423 1.52.846 2.28 1.185l.254.085c1.52.761 2.702 1.947 3.716 3.724.507.847.169 1.355-.253 1.863-.338.423-.676.931-1.014 1.354-.169.254-.338.424-.507.678-.337.508-.76.93-1.098 1.439-.844 1.016-1.013 2.285-.506 3.725.084.338.337.508.844.677 1.098.423 2.196.931 3.294 1.439a3.538 3.538 0 0 1 1.774 2.878v3.725c1.182.593 2.365 1.1 3.632 1.44.084-.17.084-.255.168-.424.085-.423.254-.762.423-1.1.844-1.44 1.858-3.133 2.871-4.826.93-1.439 1.858-3.047 2.112-4.825.338-2.37-.17-4.656-1.605-6.773-.507-.762-1.351-1.185-2.45-1.27-.76 0-1.435-.084-2.195-.084-.93 0-1.774 0-2.618-.085-.507 0-1.098-.17-1.52-.423-1.268-.677-2.281-1.693-3.041-2.963-.845-1.44-.591-3.64.422-4.91.338-.339.845-.508 1.183-.508 1.013 0 1.689.592 2.195 1.1.254.339.592.593.845.932l.169.169c.169-.085.169-.254.169-.508v-.423c0-.424-.085-.762 0-1.185a2.582 2.582 0 0 1 .676-1.355c.337-.339.675-.593 1.013-.847.253-.253.507-.423.76-.677.423-.338.76-.762 1.014-1.185.507-.931 1.013-1.862 1.436-2.794.337-.592.59-1.27.929-1.862.506-.931.422-1.947-.254-3.132-.507-.932-1.351-1.778-2.534-2.71l-.929-.677-.084-.084c-3.125 1.016-6.166 2.793-8.615 5.248zm-6.165 10.667c-.507 1.778-.76 3.725-.76 5.587-.085 8.466 4.898 16.085 12.162 19.895v-.678c0-.93.084-1.777 0-2.624-.085-.931-.507-1.693-1.352-2.116-1.013-.508-2.111-.932-3.21-1.355-.506-.17-1.182-.423-1.435-1.185-.591-1.693-.422-3.217.591-4.487.422-.508.76-.931 1.098-1.439.085-.254.254-.423.422-.677.338-.424.676-.931 1.014-1.355.338-.423.338-.508.169-.846-1.014-1.693-2.027-2.71-3.379-3.387l-.253-.084c-.76-.339-1.52-.762-2.28-1.185-1.352-.847-2.196-1.863-2.534-3.133a13.405 13.405 0 0 1-.253-.93zM66.223 70.286c-1.858-1.185-3.125-3.387-3.632-5.842-.253-2.116.17-4.063 1.267-5.418.085-.169.253-.169.422-.084 1.605.846 2.872 2.793 3.379 5.08.507 2.37.169 4.655-1.014 6.18 0 .084-.169.168-.253.168 0 0-.085-.084-.169-.084zm-1.858-10.498c-.845 1.186-1.183 2.794-.845 4.572.254 2.116 1.352 3.979 2.872 5.164.844-1.355 1.098-3.302.676-5.334-.423-1.947-1.436-3.555-2.703-4.402zm5.659 17.609c-.085 0-.254-.085-.338-.17-1.098-1.693-1.436-3.978-.845-6.18.507-1.862 1.605-3.386 3.04-4.148.085-.084.339-.084.423.085 1.098 1.355 1.436 3.386 1.014 5.503-.423 2.116-1.605 3.979-3.125 4.825-.085.085-.085.085-.17.085zm-.423-6.18c-.506 1.862-.253 3.81.592 5.249 1.182-.762 2.111-2.37 2.449-4.149.338-1.777.084-3.47-.676-4.656-1.098.762-1.942 2.032-2.365 3.556zm5.068 13.799c-1.52-1.355-2.45-3.556-2.45-5.841 0-1.947.676-3.64 1.859-4.741a.537.537 0 0 1 .506 0c1.352 1.016 2.196 2.963 2.365 5.08.17 2.2-.506 4.232-1.773 5.502-.085.085-.17.085-.254.085-.084 0-.169 0-.253-.085zm-.253-9.82c-.93.931-1.436 2.37-1.436 3.979 0 1.947.675 3.724 1.858 4.994 1.013-1.1 1.436-2.793 1.351-4.656-.084-1.778-.76-3.386-1.773-4.317zm6.08 14.73c-.084.085-.168.085-.337 0-.085 0-.17 0-.254-.085-1.435-1.354-2.364-3.47-2.364-5.756 0-1.947.675-3.64 1.858-4.741a.537.537 0 0 1 .506 0c1.352 1.016 2.196 2.963 2.365 5.08.17 2.2-.506 4.232-1.773 5.502zm-2.195-5.841c0 1.947.76 3.81 1.858 4.994 1.013-1.1 1.436-2.793 1.351-4.656-.084-1.777-.76-3.386-1.774-4.317-.929.931-1.435 2.37-1.435 3.979zm9.544 10.074c-1.859-.847-3.379-2.71-4.054-4.826-.592-1.862-.423-3.725.337-5.079.085-.17.254-.254.423-.17 1.604.593 3.04 2.117 3.8 4.149.845 2.032.845 4.233 0 5.756-.084.085-.169.17-.337.17h-.17zm-3.21-9.312c-.591 1.185-.591 2.709-.084 4.232.59 1.778 1.773 3.302 3.294 4.149.59-1.355.506-3.133-.17-4.826-.675-1.693-1.773-2.963-3.04-3.555zm-20.355-7.62c-1.942 0-3.97-.93-5.49-2.37-1.35-1.439-2.11-3.132-2.026-4.74 0-.17.168-.34.337-.34 1.69-.253 3.632.509 5.237 1.948s2.534 3.386 2.534 5.164c0 .17-.17.339-.338.339h-.254zm-2.449-4.994c-1.351-1.185-2.956-1.863-4.307-1.778 0 1.27.675 2.624 1.773 3.81 1.267 1.354 3.125 2.116 4.814 2.2-.084-1.439-.929-2.962-2.28-4.232zm5.574 11.852c-.506.084-1.013.169-1.435.169-1.605 0-3.21-.508-4.646-1.524-1.604-1.1-2.618-2.624-2.871-4.233 0-.169.084-.338.253-.423 1.605-.508 3.632-.085 5.49 1.016 1.858 1.1 3.21 2.878 3.463 4.571.084.17-.085.339-.254.424zm-8.192-5.418c.253 1.27 1.182 2.54 2.45 3.47 1.52 1.101 3.462 1.524 5.151 1.27-.338-1.354-1.436-2.793-3.04-3.724-1.52-.932-3.21-1.355-4.561-1.016zm7.939 11.598c-1.858-.593-3.21-1.863-3.885-3.387 0-.169 0-.338.169-.423 1.436-.931 3.547-1.1 5.574-.508 2.112.677 3.8 1.947 4.56 3.556.085.169 0 .423-.168.508-1.013.508-2.196.761-3.378.761a8.207 8.207 0 0 1-2.872-.507zm1.605-3.556c-1.69-.508-3.463-.423-4.646.17.592 1.184 1.774 2.2 3.294 2.708a7.208 7.208 0 0 0 5.321-.084c-.76-1.27-2.196-2.286-3.97-2.794zm-.93 6.772c1.014-1.354 2.957-2.2 5.068-2.285 2.196-.17 4.308.508 5.49 1.778.17.169.17.338 0 .507-1.351 1.524-3.547 2.37-5.743 2.37h-.085c-1.942 0-3.631-.676-4.73-1.862a.54.54 0 0 1 0-.508zm9.798-.253c-1.098-.932-2.872-1.44-4.645-1.355-1.774.085-3.379.762-4.308 1.778.93.931 2.365 1.439 3.97 1.439 1.858 0 3.716-.677 4.983-1.862zm8.361 3.809c.085.085.085.339 0 .508-1.35 1.524-3.547 2.37-5.743 2.37h-.084c-1.943 0-3.632-.677-4.73-1.862a.54.54 0 0 1 0-.508c1.014-1.27 2.956-2.201 5.068-2.286 2.196-.17 4.307.508 5.49 1.778zm-5.827 2.116c1.942 0 3.716-.677 4.983-1.862-1.098-.931-2.787-1.44-4.645-1.354-1.774.084-3.379.761-4.308 1.777.93.932 2.365 1.44 3.97 1.44zM66.223 71.894C69.179 84 78.639 93.651 89.956 96.021c.169 0 .253.254.253.423 0 .17-.168.254-.337.254h-.085c-11.486-2.37-21.284-12.275-24.24-24.635-.084-.169.085-.338.254-.423.169-.084.338.085.422.254zm65.878-1.524c-.169 0-.253 0-.337-.169-1.098-1.524-1.52-3.81-1.014-6.18.507-2.286 1.774-4.233 3.378-5.08.085-.084.338-.084.423.085 1.098 1.355 1.604 3.302 1.267 5.418-.423 2.455-1.69 4.572-3.548 5.842 0 .084-.084.084-.169.084zm-.59-6.18c-.508 2.032-.17 3.98.675 5.334 1.52-1.185 2.534-3.048 2.871-5.164.338-1.693 0-3.386-.844-4.572-1.267.847-2.28 2.455-2.703 4.402zm-3.21 13.122c-1.52-.846-2.703-2.624-3.125-4.825-.338-2.117 0-4.148 1.013-5.503.085-.085.254-.17.422-.085 1.436.762 2.534 2.286 3.041 4.149.591 2.116.253 4.486-.845 6.18-.084.084-.253.169-.337.169-.085 0-.085-.085-.17-.085zm-1.774-9.65c-.76 1.185-1.013 2.878-.676 4.74.338 1.778 1.267 3.302 2.45 4.148.844-1.524 1.098-3.47.59-5.333-.421-1.609-1.266-2.878-2.364-3.556zm-3.21 17.354c-1.182-1.27-1.858-3.302-1.858-5.418.17-2.201 1.014-4.064 2.365-5.08.17-.169.338-.084.507 0 1.183 1.016 1.858 2.794 1.858 4.741 0 2.201-.844 4.402-2.365 5.757-.084.085-.169.085-.253.085-.085 0-.169 0-.253-.085zm-1.013-5.503c-.084 1.863.422 3.556 1.351 4.656 1.183-1.27 1.859-3.047 1.859-4.994 0-1.609-.507-3.048-1.436-3.98-1.014.932-1.69 2.54-1.774 4.318zm-3.8 10.413c-.085.085-.17.085-.338.17-.085 0-.17 0-.254-.085-1.267-1.27-1.942-3.302-1.773-5.503.168-2.201 1.013-4.064 2.364-5.08.17-.169.338-.084.507 0 1.183 1.016 1.858 2.794 1.858 4.741 0 2.201-.844 4.402-2.365 5.757zm-1.52-5.503c-.17 1.863.337 3.556 1.35 4.656 1.183-1.27 1.859-3.047 1.859-4.994 0-1.609-.507-3.048-1.436-3.98-1.014.932-1.69 2.54-1.774 4.318zm-6.42 9.736c-.169 0-.338-.085-.338-.17-.76-1.523-.76-3.724 0-5.756.845-2.032 2.196-3.556 3.801-4.148.169-.085.338 0 .422.169.845 1.354.93 3.217.338 5.08-.676 2.2-2.196 3.978-4.054 4.825h-.169zm.254-5.672c-.676 1.693-.676 3.47-.17 4.825 1.52-.762 2.703-2.286 3.295-4.148.506-1.524.506-3.048-.085-4.233-1.267.593-2.365 1.863-3.04 3.556zm30.574-18.794c.169.085.338.17.338.254.084 1.609-.676 3.386-2.027 4.74-1.436 1.525-3.548 2.456-5.49 2.456h-.254c-.168 0-.337-.17-.337-.339-.085-1.778.929-3.725 2.533-5.164 1.605-1.439 3.548-2.116 5.237-1.947zm-2.196 4.572c1.098-1.101 1.774-2.54 1.774-3.895h-.17c-1.35 0-2.87.678-4.138 1.863-1.351 1.185-2.196 2.793-2.28 4.233 1.689 0 3.463-.847 4.814-2.201zm.591 3.81a.466.466 0 0 1 .254.422c-.254 1.609-1.267 3.133-2.872 4.233-1.436 1.016-3.04 1.524-4.645 1.524-.507 0-.93-.085-1.436-.17a.466.466 0 0 1-.254-.423c.254-1.693 1.605-3.386 3.463-4.571 1.858-1.185 3.885-1.524 5.49-1.016zm-2.956 4.063c1.267-.932 2.196-2.201 2.45-3.471-1.352-.254-3.041.084-4.561 1.016-1.52.93-2.703 2.285-3.04 3.724 1.688.254 3.546-.169 5.151-1.27zm-1.774 4.317c.17.085.254.339.17.423-.676 1.524-2.028 2.71-3.886 3.387a8.562 8.562 0 0 1-2.871.507c-1.183 0-2.365-.253-3.379-.761a.408.408 0 0 1-.169-.508c.76-1.609 2.45-2.963 4.561-3.556 2.112-.593 4.139-.423 5.574.508zm-3.97 3.132c1.521-.508 2.704-1.524 3.295-2.624-1.183-.677-2.956-.762-4.646-.254-1.773.508-3.209 1.524-3.97 2.794 1.521.677 3.548.762 5.322.084zm-5.151 6.265c-2.28 0-4.477-.931-5.828-2.37-.169-.17-.169-.34 0-.508 1.267-1.186 3.294-1.863 5.49-1.778 2.111.084 4.054.931 5.068 2.285a.54.54 0 0 1 0 .508c-1.098 1.186-2.788 1.863-4.73 1.863zm-.338-3.979c-1.858-.085-3.547.423-4.645 1.355 1.267 1.185 3.04 1.862 4.983 1.862 1.605 0 3.04-.508 3.97-1.44-.93-1.015-2.534-1.692-4.308-1.777zm-7.264 7.958c-2.28 0-4.391-.847-5.827-2.37-.17-.17-.17-.34 0-.509 1.267-1.185 3.294-1.862 5.49-1.777 2.111.084 4.054.93 5.067 2.285a.54.54 0 0 1 0 .508c-1.098 1.185-2.787 1.863-4.73 1.863zm-.337-3.894c-1.858-.085-3.548.338-4.73 1.354 1.267 1.185 3.125 1.862 4.983 1.862h.084c1.605 0 3.041-.507 3.97-1.439-.929-1.016-2.534-1.693-4.307-1.777zm14.696-24.297c.253.085.337.254.337.423-2.956 12.276-12.669 22.18-24.24 24.635h-.084c-.169 0-.338-.084-.338-.254-.084-.169.085-.423.254-.423 11.233-2.37 20.777-12.021 23.648-24.127 0-.17.254-.338.423-.254zm-67.737 33.947c.507.085 1.183.085 2.112.17h3.547c.76-.085 1.267-.085 1.605-.085 0 .423-.085 1.1-.085 2.032h-.422l-.085-.593c-.084-.339-.084-.508-.084-.592-.085 0-.085 0-.085-.085s0-.085-.084-.085c0-.084-.253-.084-.591-.084h-1.605c-.084.423-.084.93-.084 1.608v5.249c0 .338 0 .592.084.677.085.085.169.17.253.17.17.084.423.084.93.084v.423c-.76-.084-1.352-.084-1.69-.084-.169 0-.844.084-1.942.084v-.423c.506 0 .844-.085.929-.085.169-.084.253-.084.253-.17 0-.084.085-.253.085-.592v-7.026h-.93c-.506 0-.928.085-1.266.085-.085 0-.17.084-.17.084 0 .085-.084.254-.084.677l-.084.593h-.422c0-.931-.085-1.608-.085-2.032zm13.176 8.89c.084-.593.084-1.186-.085-1.694v-1.524c0-.423 0-.846-.084-1.016-.085-.254-.17-.423-.422-.592-.17-.17-.507-.254-.845-.254-.169 0-.422 0-.591.084-.17.085-.338.17-.507.34-.084.084-.253.253-.338.422 0 .085-.084.17-.084.254v3.217c0 .17.084.339.084.424l.085.084c.084.085.084.085.169.085h.675v.339c-.76-.085-1.267-.085-1.52-.085-.253 0-.76.085-1.605.085v-.34h.591c.085 0 .085-.084.17-.084l.084-.084c.084-.085.084-.254.084-.424.085-.084.085-.677.085-1.777v-5.334c0-.508-.085-.762-.085-.846 0 0 0-.085-.084-.085-.085-.085-.338-.085-.845-.085v-.338c.93-.085 1.605-.254 1.943-.424h.169v4.91c.084-.084.253-.169.506-.423.338-.254.423-.338.507-.423.085-.085.085-.17.17-.17.084 0 .168-.084.337-.084.169-.085.422-.085.591-.085.422 0 .76.085 1.098.254.338.17.507.424.676.677.084.254.169.678.169 1.186v2.878c0 .17.084.339.084.423l.085.085c.084.085.084.085.169.085h.675v.338h-2.111zm7.686-3.048c-.507 0-.93 0-1.52-.085H82.27c0 .593.17 1.1.338 1.44.253.422.507.676.845.846a2.6 2.6 0 0 0 1.098.254c.253 0 .506 0 .76-.085.253-.085.591-.17.929-.423l.084.084-.169.424a4.818 4.818 0 0 1-.59.338c-.17.085-.423.17-.676.254-.254.085-.507.085-.76.085-.592 0-1.099-.085-1.52-.339a2.915 2.915 0 0 1-1.014-1.016c-.254-.423-.338-1.016-.338-1.608 0-.423 0-.847.169-1.27.084-.339.253-.677.422-.847.169-.084.338-.253.591-.423.254-.17.507-.338.76-.423.338-.085.676-.17 1.098-.17.507 0 .845.17 1.267.34.422.169.676.423.845.846.169.423.253.846.253 1.27v.423c-.338 0-.591.085-.844.085zm-3.379-.424h3.04v-.254c0-.677-.168-1.1-.422-1.439-.337-.254-.675-.423-1.098-.423-.422 0-.844.17-1.098.508-.253.338-.422.846-.422 1.608zm7.77-4.148c0 .17 0 .593-.084 1.863v1.354h1.267c.507 0 .929 0 1.267-.085.169 0 .253 0 .253-.084 0 0 .085-.17.085-.508l.084-.423h.422l-.084 1.439.084 1.524h-.422l-.084-.424c0-.508-.085-.762-.085-.762-.084-.084-.169-.169-.253-.169-.254-.085-.76-.085-1.605-.085h-.929v2.879c0 .338 0 .592.084.677.085.085.17.17.254.17.169.084.422.084.929.084v.423c-.591-.084-1.098-.084-1.605-.084-.422 0-1.098.084-2.027.084v-.423c.507 0 .845-.085.93-.085.168-.084.253-.084.253-.17 0-.084.084-.253.084-.592v-6.349c0-.339 0-.592-.084-.677-.085-.085-.17-.17-.254-.17-.169-.084-.422-.084-.929-.084v-.423h6.42c-.085.338-.17.93-.17 1.862h-.422c-.085-.508-.085-.931-.17-1.185a1.683 1.683 0 0 0-.76-.17c-.337-.084-.675-.084-1.097-.084-.422 0-.845 0-1.267.085-.085.169-.085.423-.085.592zm6.926 7.535c-.338-.085-.591-.424-.844-.678-.254-.254-.423-.508-.507-.762a3.963 3.963 0 0 1-.254-1.439c0-.931.254-1.693.845-2.285.591-.593 1.351-.847 2.28-.847.845 0 1.52.339 2.112.847.591.507.844 1.27.844 2.116 0 .677-.168 1.185-.422 1.693a2.672 2.672 0 0 1-1.182 1.185c-.507.254-1.098.424-1.69.424-.422 0-.844-.085-1.182-.254zm.085-4.995c-.338.423-.507 1.016-.423 1.693 0 .508.085 1.016.254 1.524.169.592.422.931.76 1.185.253.254.675.339 1.013.339.423 0 .845-.17 1.183-.593.338-.423.507-1.016.507-1.778 0-.677 0-1.185-.254-1.693-.253-.508-.422-.846-.76-1.016a2.245 2.245 0 0 0-1.014-.254c-.506 0-.929.254-1.266.593zm6.756 4.063c0-1.1 0-1.693.085-1.777v-1.863c0-.254-.085-.339-.085-.423-.084 0-.084-.085-.169-.085h-.844v-.338c.844-.085 1.436-.254 1.858-.424.084-.084.084-.084.169-.084h.084v1.354c.17-.254.338-.423.507-.677.169-.254.253-.339.338-.423.084-.085.253-.17.422-.254.17-.085.338-.085.507-.085.169 0 .338 0 .507.085v.084c0 .508-.085 1.016-.085 1.44h-.253c-.085-.17-.253-.34-.338-.424-.169-.085-.338-.17-.507-.17-.338 0-.59.17-.844.424s-.338.677-.338 1.185v2.71c0 .084.084.169.084.169.085 0 .085.084.17.084.168 0 .506.085 1.013.085v.339c-.76-.085-1.352-.085-1.858-.085-.507 0-1.014.085-1.52.085v-.34h.76c.084 0 .168-.084.168-.084s.085 0 .085-.084c.084-.085.084-.254.084-.424zm8.784-2.031c-.507 0-.929 0-1.52-.085h-2.027c0 .593.169 1.1.338 1.44.253.422.506.676.844.846a2.6 2.6 0 0 0 1.098.254c.254 0 .507 0 .76-.085.254-.085.592-.17.93-.423l.084.084-.169.424a4.745 4.745 0 0 1-.591.338 5.81 5.81 0 0 1-.676.254c-.253.085-.507.085-.76.085-.591 0-1.098-.085-1.52-.339a2.915 2.915 0 0 1-1.014-1.016c-.253-.423-.338-1.016-.338-1.608 0-.423 0-.847.17-1.27.084-.339.253-.677.422-.847.168-.084.337-.253.59-.423.254-.17.508-.338.76-.423.339-.085.677-.17 1.099-.17.507 0 .844.17 1.267.34.422.169.675.423.844.846.17.423.254.846.254 1.27v.423c-.338 0-.591.085-.845.085zm-3.378-.424h3.04v-.254c0-.677-.169-1.1-.422-1.439-.338-.254-.676-.423-1.098-.423-.422 0-.845.17-1.098.508-.253.338-.422.846-.422 1.608zM78.3 144.783c.169 0 .253-.085.338 0 .084.085.084.254.084.339l-.169 5.502c0 .254-.169.424-.422.424H64.28c-.253 0-.422-.17-.422-.424v-.592c0-1.693.338-3.217 1.098-4.572.338-.677.845-1.354 1.52-2.031a19.613 19.613 0 0 1 2.365-2.032c1.436-1.1 2.45-1.863 2.872-2.37.422-.424.591-.847.591-1.27 0-.339-.084-.678-.338-.932-.169-.254-.507-.338-1.013-.338-.676 0-1.52.254-1.52 2.032 0 .169-.085.253-.17.338-.084.085-.253.085-.337.085l-4.477-.17c-.169 0-.253-.084-.338-.169-.084-.084-.084-.254-.084-.338.084-2.117.845-3.64 2.196-4.572 1.351-.931 3.04-1.354 4.983-1.354 2.196 0 3.97.508 5.321 1.523 1.436 1.101 2.112 2.455 2.112 4.149 0 1.1-.423 2.116-1.098 3.047-.76.847-2.027 1.778-3.97 2.794-1.436.762-2.45 1.354-2.956 1.693-.254.254-.507.423-.676.677h4.223l.085-1.016c0-.254.169-.423.422-.423H78.3zm-.507 5.418l.084-4.402H75.09l-.084 1.016c0 .254-.17.423-.423.423h-5.49c-.084 0-.253 0-.337-.17-.085-.169-.085-.253 0-.422a4.632 4.632 0 0 1 1.351-1.524c.507-.424 1.605-1.016 3.125-1.778 1.858-.931 3.125-1.863 3.716-2.624.507-.762.845-1.609.845-2.54 0-1.44-.591-2.624-1.774-3.471-1.267-.931-2.871-1.355-4.814-1.355-1.774 0-3.294.424-4.476 1.186-1.014.677-1.605 1.862-1.774 3.47l3.632.085c.169-2.032 1.351-2.455 2.365-2.455.76 0 1.267.17 1.689.593.422.423.591.931.591 1.524 0 .677-.253 1.27-.76 1.862-.507.508-1.436 1.355-3.04 2.54a19.25 19.25 0 0 0-2.281 1.947 9.202 9.202 0 0 0-1.436 1.862c-.675 1.185-1.013 2.625-1.013 4.148v.085h13.09zm12.331-14.053c.507 0 1.267.17 1.774 1.185.337.678.506 2.201.506 4.487 0 2.201-.169 3.64-.506 4.402-.423 1.1-1.183 1.355-1.69 1.355-.59 0-1.266-.254-1.773-1.27-.338-.762-.507-2.201-.507-4.487s.169-3.725.507-4.487c.507-1.016 1.182-1.185 1.689-1.185zm1.014 9.736c.168-.424.422-1.524.337-3.98 0-2.708-.253-3.724-.422-4.147-.338-.678-.676-.762-.929-.762s-.591.084-.93.762c-.168.423-.421 1.523-.421 4.148 0 2.624.253 3.64.422 4.063.338.678.76.762 1.013.762.254 0 .592-.084.93-.846zm4.73-10.921c1.435 1.693 2.195 4.063 2.28 6.857 0 2.963-.845 5.333-2.365 6.942-1.52 1.608-3.463 2.455-5.575 2.455-2.195 0-4.138-.847-5.658-2.54-1.52-1.693-2.28-3.979-2.28-6.857 0-2.963.844-5.333 2.364-6.942 1.52-1.608 3.463-2.455 5.574-2.455 2.196 0 4.139.847 5.66 2.54zm-.76 13.206c1.435-1.439 2.11-3.555 2.11-6.349 0-2.624-.675-4.74-2.026-6.264-1.436-1.524-3.041-2.286-5.068-2.286-1.943 0-3.547.677-4.983 2.2-1.436 1.525-2.112 3.641-2.112 6.35 0 2.624.676 4.74 2.027 6.265 1.436 1.523 3.041 2.285 5.068 2.285 1.943 0 3.547-.677 4.983-2.2zm19.678 2.455c0 .254-.169.424-.422.424h-10.473c-.253 0-.422-.17-.422-.424v-4.063c0-.254.169-.423.422-.423h2.027v-6.942c-.422.084-.845.084-1.436.084h-.676c-.168 0-.337-.254-.337-.423v-3.894c0-.17.084-.254.169-.339.084-.084.253-.084.337-.084h.254c1.013 0 2.027-.17 2.871-.593.845-.423 1.52-.931 1.858-1.44.085-.084.17-.168.338-.168h2.619c.253 0 .422.169.422.423v13.376h2.027c.253 0 .422.169.422.423v4.063zm-10.473-.423h9.713v-3.217H112c-.253 0-.422-.17-.422-.423v-13.376h-2.027c-.507.593-1.183 1.1-2.112 1.524a7.665 7.665 0 0 1-3.125.677v3.048h.17c.76 0 1.35-.085 1.773-.17.084 0 .253 0 .338.085.084.085.169.17.169.339v7.873c0 .254-.17.423-.423.423h-2.027v3.217zm23.311-9.82c-.845 0-1.436-.254-1.858-.762-.422-.423-.676-.931-.676-1.608 0-.678.254-1.27.76-1.694.507-.423 1.098-.677 1.774-.677.76 0 1.351.254 1.774.677.422.424.675 1.016.675 1.694 0 .761-.253 1.354-.76 1.777-.507.424-1.013.593-1.689.593zm-1.182-3.47a2.024 2.024 0 0 0-.592 1.1c0 .423.17.761.423 1.015.253.254.675.424 1.267.424.506 0 .844-.085 1.182-.339.253-.17.422-.592.422-1.1 0-.424-.169-.847-.422-1.1-.253-.255-.591-.424-1.098-.424-.507 0-.845.17-1.182.423zm1.182 5.671c.845 0 1.52.254 2.111.677.507.508.76 1.185.76 1.947s-.253 1.44-.76 1.947c-.506.508-1.182.762-2.027.762-.844 0-1.52-.254-2.027-.677-.59-.423-.844-1.1-.844-1.947 0-.677.253-1.354.76-1.862.422-.593 1.182-.847 2.027-.847zm1.351 4.064c.338-.34.507-.847.423-1.27 0-.593-.17-1.016-.507-1.355-.338-.338-.76-.508-1.351-.508-.592 0-1.098.17-1.436.508-.338.339-.507.762-.507 1.27 0 .593.169 1.016.507 1.355.338.338.844.507 1.436.507.675 0 1.098-.169 1.435-.507zm4.054-5.25c.592.255 1.098.678 1.52 1.101.676.762 1.014 1.778 1.014 2.963 0 1.693-.675 3.133-2.027 4.148-1.351 1.016-3.378 1.524-6.08 1.524-2.62 0-4.646-.592-5.913-1.608-1.351-1.1-2.027-2.455-2.027-4.064 0-1.862.929-3.217 2.618-4.148a4.448 4.448 0 0 1-1.182-1.016c-.592-.677-.93-1.524-.93-2.54 0-1.608.676-2.962 2.028-3.978 1.267-.931 3.125-1.44 5.405-1.44 2.365 0 4.308.509 5.574 1.44 1.352 1.016 2.027 2.285 2.027 3.894 0 1.608-.675 2.878-2.027 3.725zm0 7.62c1.183-.847 1.69-1.947 1.69-3.386 0-1.016-.338-1.778-.845-2.455a3.242 3.242 0 0 0-2.027-1.27c-.169 0-.338-.17-.338-.339 0-.17.085-.338.254-.423 1.689-.677 2.449-1.778 2.449-3.386 0-1.355-.591-2.37-1.69-3.217-1.182-.847-2.871-1.27-5.067-1.27-2.111 0-3.716.423-4.899 1.27-1.182.846-1.689 1.947-1.689 3.301 0 .847.254 1.44.676 2.032a4.08 4.08 0 0 0 1.69 1.185.466.466 0 0 1 .252.423c0 .17-.084.34-.253.424-1.942.677-2.872 1.947-2.872 3.725 0 1.354.592 2.455 1.69 3.386 1.098.846 2.956 1.354 5.405 1.354 2.534 0 4.392-.423 5.574-1.354zm-64.189-25.82l1.69-4.826h.76l1.773 4.826H72.05l-.254-.847h-1.689l-.253.847H68.84zm2.703-1.609l-.591-1.777-.592 1.777h1.183zm4.73-1.862l.675 2.116.592-2.116h.929l-1.098 3.47h-.676l-.76-2.2-.76 2.2H74.5l-1.098-3.47h.93l.59 2.116.676-2.116h.676zm5.574 1.185v2.37h-.845v-.338c-.253.254-.422.338-.844.338-.423 0-.76-.169-.93-.338-.168-.17-.253-.423-.253-.762 0-.593.338-1.016 1.183-1.016h.844v-.17c0-.423-.253-.592-.675-.592-.338 0-.507.085-.676.254l-.591-.508c.338-.423.675-.508 1.267-.508 1.013 0 1.52.423 1.52 1.27zm-.845 1.016h-.084v-.254h-.676c-.338 0-.507.17-.507.423 0 .254.17.424.507.424.254 0 .423 0 .591-.17.17-.084.17-.17.17-.423zm2.112 1.27v-3.64h.844v.338c.17-.17.507-.338.845-.338.338 0 .591.084.845.338l-.676.677c-.084-.084-.169-.169-.422-.169-.338 0-.592.254-.592.677v2.117h-.844zm5.828 0h-.845v-.339c-.253.254-.507.339-.845.339a1.29 1.29 0 0 1-.844-.339c-.338-.338-.338-.931-.338-1.439s0-1.1.338-1.44c.169-.253.507-.338.844-.338.338 0 .592.085.845.339v-1.609h.845v4.826zm-1.436-.762c.507 0 .591-.423.591-1.016s-.084-1.016-.591-1.016-.591.423-.591 1.016.084 1.016.59 1.016zm3.885.085c.253 0 .591-.085.676-.34 0-.168-.085-.338-.338-.338l-.591-.084c-.592-.085-1.014-.339-1.014-1.016 0-.678.676-1.1 1.351-1.1.592 0 1.014.084 1.352.422l-.507.508a1.424 1.424 0 0 0-.845-.254c-.337 0-.506.17-.506.34 0 .168 0 .338.337.338l.592.084c.675.085 1.013.424 1.013 1.016 0 .847-.676 1.185-1.52 1.185-.591 0-1.098-.084-1.52-.508l.59-.592c.254.339.677.339.93.339zm2.45-.34h1.013v1.017H93.84v-1.016zm3.547-1.692c-.17 0-.338 0-.507.084a1.69 1.69 0 0 0-.17.762c0 .339 0 .593.17.762.169.17.338.254.507.254a.766.766 0 0 0 .59-.254l.592.593c-.338.338-.676.508-1.182.508-.76 0-1.605-.339-1.605-1.778 0-1.44.929-1.778 1.605-1.778.506 0 .844.17 1.182.508l-.591.593a.766.766 0 0 0-.591-.254zm2.28-.424c.169-.169.507-.423 1.098-.423.507 0 .844.17 1.098.423.338.34.422.762.422 1.355s-.084 1.016-.422 1.354c-.254.254-.591.424-1.098.424-.507 0-.845-.17-1.098-.424-.338-.338-.422-.677-.422-1.354 0-.593.084-1.016.422-1.355zm1.69 1.355c0-.339 0-.593-.17-.847a.644.644 0 0 0-.422-.169.644.644 0 0 0-.422.17c-.17.169-.17.507-.17.846 0 .339 0 .677.17.847a.646.646 0 0 0 .422.169.644.644 0 0 0 .422-.17c.17-.169.17-.507.17-.846zm6.925 1.778h-.845v-2.117c0-.508-.338-.677-.591-.677-.253 0-.591.17-.591.593v2.116h-.845v-2.116c0-.508-.338-.678-.591-.678-.253 0-.591.17-.591.678v2.116h-.845v-3.47h.845v.338c.169-.17.506-.339.844-.339.423 0 .676.085.93.423a1.397 1.397 0 0 1 1.013-.423c.338 0 .676.17.844.339.338.338.423.592.423 1.016v2.2zM66.56 159.09c.253.17.591.423.591 1.1 0 .847-.591 1.355-1.436 1.355h-1.942v-4.825h1.942c.93 0 1.436.508 1.436 1.354 0 .593-.338.931-.591 1.016zm-1.943-1.524v1.185h.93a.578.578 0 0 0 .59-.592c0-.339-.168-.593-.59-.593h-.93zm1.014 3.132c.422 0 .591-.254.591-.592 0-.339-.169-.593-.591-.593h-1.014v1.185h1.014zm4.054-2.709c.929 0 1.52.762 1.605 1.694v.338h-2.196c0 .423.253.762.76.762.338 0 .506-.085.76-.339l.507.508c-.338.424-.76.593-1.352.593-.844 0-1.604-.339-1.604-1.778 0-1.1.59-1.778 1.52-1.778zm-.676 1.44h1.351c0-.085 0-.17-.084-.34-.084-.168-.253-.338-.591-.338-.338 0-.507.17-.591.339-.085.085-.085.17-.085.339zm4.899 0c.675.084 1.013.423 1.098 1.015 0 .847-.676 1.186-1.52 1.186-.592 0-1.098-.085-1.52-.508l.59-.593c.254.339.676.339.93.339.253 0 .59-.085.59-.339 0-.17-.084-.339-.337-.339l-.591-.084c-.592-.085-1.014-.339-1.014-1.016s.676-1.1 1.351-1.1c.592 0 1.014.084 1.352.423l-.507.508a1.425 1.425 0 0 0-.845-.254c-.337 0-.506.169-.506.338 0 .17 0 .339.338.339l.59.085zm2.871-2.286v1.016h.592v.677h-.592v1.693c0 .254.17.339.338.339h.338v.762h-.507c-.675 0-1.013-.508-1.013-1.016v-1.778h-.338v-.677h.338v-1.016h.844zm4.477 0v1.016h.591v.677h-.591v1.693c0 .254.169.339.338.339h.337v.762h-.506c-.676 0-1.014-.508-1.014-1.016v-1.778h-.338v-.677h.338v-1.016h.845zm2.534 1.27c.168-.254.506-.424.844-.508.338 0 .591.084.845.338l-.676.678c-.084-.085-.169-.17-.422-.17-.338 0-.591.254-.591.678v2.116h-.845v-3.47h.845v.338zm3.547-.424c1.013 0 1.52.424 1.52 1.355v2.286h-.844v-.339c-.254.254-.423.339-.845.339s-.76-.17-.93-.339c-.168-.17-.253-.423-.253-.762 0-.592.338-1.016 1.183-1.016h.845v-.17c0-.422-.254-.592-.676-.592-.338 0-.507.085-.676.254l-.591-.508c.338-.423.676-.508 1.267-.508zm.591 2.286h-.084v-.254h-.676c-.338 0-.507.17-.507.423 0 .254.17.424.507.424.253 0 .422 0 .591-.17.17-.084.17-.169.17-.423zm3.97-1.947v-1.608h.844v4.825H91.9v-.339c-.254.254-.507.339-.845.339-.338 0-.676-.17-.845-.339-.337-.338-.337-.93-.337-1.439 0-.508 0-1.1.337-1.439.17-.254.507-.339.845-.339.338 0 .591.085.845.339zm-.592 2.455c.592 0 .592-.423.592-1.016 0-.592-.085-1.016-.592-1.016-.506 0-.59.424-.59 1.016 0 .593.084 1.016.59 1.016zm2.788-2.709h.844v3.471h-.844v-3.47zm-.085-1.354h.93v.677h-.93v-.677zm3.885 1.27c.338 0 .591.084.845.253.253.339.338.593.338 1.016v2.201h-.845v-2.116c0-.508-.338-.677-.591-.677-.253 0-.591.169-.591.677v2.116h-.845v-3.47h.845v.338c.169-.254.506-.339.844-.339zm4.308.338h.084v-.254h.845v3.386c0 .847-.591 1.44-1.52 1.44-.507 0-.93-.085-1.267-.424l.506-.592c.17.169.423.254.676.254.507 0 .676-.424.676-.762v-.339c-.254.254-.507.339-.845.339-.338 0-.676-.17-.844-.339-.338-.254-.338-.762-.338-1.354 0-.593 0-1.016.338-1.355.168-.254.506-.339.844-.339.338 0 .591.085.845.339zm-.592 2.286c.507 0 .507-.424.592-.931 0-.508-.085-.932-.592-.932-.506 0-.59.508-.59.932 0 .507.084.93.59.93zm6.42-3.894c1.013 0 1.604.677 1.604 1.523 0 .847-.591 1.524-1.605 1.524h-.929v1.778h-.929v-4.825h1.858zm-.085 2.2c.422 0 .676-.169.676-.592 0-.423-.254-.677-.676-.677h-.845v1.27h.845zm3.463 1.61c0 .168.084.253.338.338h.337v.762h-.506c-.676 0-1.014-.508-1.014-1.016v-3.81h.845v3.725zm2.787-2.54c.929 0 1.436.423 1.52 1.354v2.286h-.844v-.339c-.254.254-.423.339-.845.339s-.76-.17-.929-.339c-.169-.17-.253-.423-.253-.762 0-.592.337-1.016 1.182-1.016h.845v-.17c0-.422-.254-.592-.676-.592-.338 0-.507.085-.676.254l-.59-.508c.337-.423.675-.508 1.266-.508zm.591 2.285h-.084v-.254h-.676c-.338 0-.507.17-.507.423 0 .254.17.424.507.424.253 0 .422 0 .591-.17.17-.084.17-.169.17-.423zm3.04-3.132v1.016h.592v.677h-.591v1.693c0 .254.169.339.338.339h.337v.762h-.506c-.676 0-1.014-.508-1.014-1.016v-1.778h-.338v-.677h.338v-1.016h.845zm1.774.592c0-.507.338-1.015 1.014-1.1h.507v.762h-.338c-.254 0-.338.17-.338.338v.424h.676v.677h-.676v2.709h-.845v-2.709h-.337v-.677h.337v-.424zm3.717.254c.506 0 .844.254 1.098.424.337.338.422.762.422 1.354 0 .593-.085 1.016-.422 1.355-.254.254-.592.423-1.098.423-.507 0-.845-.17-1.098-.423-.338-.339-.423-.678-.423-1.355 0-.592.085-1.016.423-1.354.253-.254.59-.424 1.098-.424zm.422 2.625c.169-.17.169-.424.169-.847 0-.338 0-.677-.17-.846a.644.644 0 0 0-.421-.17.644.644 0 0 0-.423.17c-.169.169-.169.508-.169.846 0 .339 0 .677.17.847.084.084.253.17.422.17a.644.644 0 0 0 .422-.17zm2.956-2.201c.169-.254.507-.424.845-.508.337 0 .59.084.844.338l-.676.678c-.084-.085-.168-.17-.422-.17-.338 0-.591.254-.591.678v2.116h-.845v-3.47h.845v.338zm6.165-.424c.423 0 .676.085.845.339.338.339.422.593.422 1.016v2.201h-.844v-2.116c0-.508-.338-.678-.591-.678-.254 0-.592.17-.592.593v2.116h-.844v-2.116c0-.508-.338-.677-.591-.677-.254 0-.592.169-.592.677v2.116h-.844v-3.47h.844v.338c.17-.17.507-.339.845-.339.422 0 .676.085.929.424a1.397 1.397 0 0 1 1.013-.424zm-5.152-35.47v-1.44h1.859l-4.477-6.264-4.223 6.264h1.943v1.44h-6.335v-1.44h2.112l5.574-7.45-5.32-7.45h-2.281v-1.438h7.601v1.439h-2.027l3.885 5.672 3.8-5.672h-2.195v-1.44h6.334v1.44h-2.027l-4.983 6.857 5.828 8.042h2.28v1.44h-7.348zm-12.5-6.434c0 .254-.253.423-.422.423h-50c-.253 0-.422-.17-.422-.423 0-.254.169-.424.422-.424h50c.254 0 .422.17.422.424zm19.933 12.02H64.027c-.253 0-.422-.168-.422-.422s.169-.424.422-.424h71.115c.253 0 .422.17.422.424s-.169.423-.422.423zM160.733 20c.422 0 .76.339.845.762v158.307a.758.758 0 0 1-.76.762H37.76a.758.758 0 0 1-.76-.762V20.762c0-.423.338-.762.76-.762h122.973zm-6.419 152.55l5.659 5.249V21.778l-5.997 5.333h.338v145.44zM38.52 177.714l5.66-5.672V26.857l-5.66-5.08v155.937zm114.95-151.11l5.743-5.08H39.28l5.744 5.08H153.47zm-108.193 145.1h108.024V27.619H45.108v143.915h.085c.084 0 .084.085.084.17zm-6.334 6.603H159.55l-6.166-5.587H44.517l-5.574 5.587z"/></svg>