<svg xmlns="http://www.w3.org/2000/svg" viewBox="0 0 200 200"><path fill="#FFF" fill-rule="evenodd" d="M21.84 47.746v104.508c0 .5.413.913.92.913h154.48a.922.922 0 0 0 .92-.913V47.746a.92.92 0 0 0-.92-.913H22.76a.922.922 0 0 0-.92.913zm-1.84 0A2.756 2.756 0 0 1 22.76 45h154.48a2.757 2.757 0 0 1 2.76 2.746v104.508a2.757 2.757 0 0 1-2.76 2.746H22.76a2.757 2.757 0 0 1-2.76-2.746V47.746zm12.874 9.172v86.163c0 .51.413.919.926.919h132.4a.916.916 0 0 0 .926-.918V56.919A.921.921 0 0 0 166.2 56H33.8a.916.916 0 0 0-.926.918zm-.92 0c0-1.013.817-1.835 1.846-1.835h132.4c1.02 0 1.846.818 1.846 1.835v86.163a1.834 1.834 0 0 1-1.846 1.836H33.8a1.838 1.838 0 0 1-1.846-1.835V56.919zM99.08 78h.92v43.083h-.92V78zm6.736 29.792v-8.834h1.03v8.834h-1.03zm9.032 0l-1.104-2.81h-3.552l-1.09 2.81h-1.043l3.503-8.87h.867l3.485 8.87h-1.066zm-1.425-3.735l-1.03-2.737c-.134-.346-.27-.77-.412-1.274-.09.385-.217.811-.383 1.274l-1.043 2.737h2.868zm3.71 3.735v-8.834h1.03v8.834h-1.03zm4.49-3.675v3.675h-1.029v-8.834h2.43c1.085 0 1.89.207 2.41.623.518.413.777 1.039.777 1.872 0 1.169-.594 1.958-1.782 2.369l2.407 3.969h-1.219l-2.145-3.674h-1.848zm0-.881h1.413c.727 0 1.26-.144 1.6-.433.34-.288.51-.72.51-1.295 0-.585-.173-1.006-.518-1.263-.346-.257-.901-.387-1.664-.387h-1.34v3.378zm-10.236 16.93l-1.104-2.809h-3.552l-1.09 2.81h-1.043l3.503-8.87h.867l3.485 8.87h-1.066zm-1.426-3.734l-1.03-2.737c-.133-.346-.27-.77-.411-1.274-.09.385-.217.811-.382 1.274l-1.043 2.737h2.867zm11.446 3.735h-1.019l-1.788-5.916a19.36 19.36 0 0 1-.286-.99c-.104-.4-.159-.64-.163-.72-.09.532-.23 1.115-.425 1.747l-1.732 5.879h-1.02l-2.357-8.834h1.092l1.4 5.456c.193.765.336 1.457.425 2.079.108-.737.27-1.458.484-2.164l1.588-5.371h1.091l1.666 5.42c.193.623.359 1.33.491 2.115.077-.572.22-1.27.436-2.09l1.394-5.445h1.09l-2.367 8.834zm9.328 0l-1.104-2.81h-3.552l-1.09 2.81h-1.042l3.503-8.87h.868l3.485 8.87h-1.068zm-1.426-3.735l-1.03-2.737c-.133-.346-.27-.77-.411-1.274-.09.385-.217.811-.382 1.274l-1.042 2.737h2.867-.002zm4.742.06v3.675h-1.03v-8.834h2.43c1.086 0 1.89.207 2.408.623.52.413.78 1.039.78 1.872 0 1.169-.594 1.958-1.782 2.369l2.406 3.969h-1.218l-2.146-3.674h-1.848zm-.001-.881h1.412c.727 0 1.262-.144 1.6-.433.34-.288.51-.72.51-1.295 0-.585-.173-1.006-.52-1.263-.345-.257-.9-.387-1.663-.387h-1.34v3.378zm13.717.055c0 1.457-.397 2.572-1.191 3.344-.793.77-1.936 1.157-3.427 1.157h-2.455v-8.834h2.716c1.379 0 2.448.38 3.213 1.142.763.76 1.146 1.824 1.146 3.19h-.002zm-1.091.037c0-1.154-.29-2.022-.87-2.606-.58-.584-1.44-.876-2.584-.876h-1.499v7.058h1.255c1.228 0 2.152-.302 2.77-.903.618-.603.927-1.495.927-2.674zm8.068 2.113c0 .778-.283 1.385-.849 1.819-.564.435-1.333.653-2.302.653-1.05 0-1.858-.135-2.425-.405v-.99a6.5 6.5 0 0 0 1.186.362c.43.088.855.133 1.275.133.686 0 1.204-.13 1.55-.391.348-.26.522-.62.522-1.084 0-.306-.061-.556-.184-.752-.124-.195-.33-.376-.619-.54-.288-.166-.728-.353-1.318-.562-.824-.293-1.414-.642-1.766-1.045-.355-.403-.531-.93-.531-1.577 0-.682.257-1.223.77-1.626.513-.403 1.191-.605 2.036-.605.881 0 1.692.162 2.43.484l-.321.894c-.731-.306-1.442-.458-2.134-.458-.545 0-.972.116-1.278.35-.307.233-.46.556-.46.972 0 .306.056.556.169.751.113.196.303.376.573.538.268.163.68.344 1.232.541.93.33 1.57.685 1.92 1.063.35.379.524.871.524 1.476zM50.809 116.14h1.738v.82H49.82v-4.888h.99v4.068zm4.842-1.295h-1.54v1.295h1.825v.82h-2.817v-4.888h2.81v.822h-1.82v1.155h1.542v.796zm7.093 1.894H59.76v3.887h-1.108v-8.798h4.594v.955h-3.485v3.01h2.983v.947h-.001zm7.154.262c0 1.2-.258 2.124-.77 2.773-.515.65-1.243.974-2.188.974-.91 0-1.628-.315-2.156-.946-.527-.63-.8-1.522-.82-2.674v-1.655c0-1.177.26-2.098.78-2.765.523-.666 1.251-1 2.184-1 .929 0 1.653.322 2.173.959.52.639.784 1.549.797 2.734v1.601V117zm-1.11-1.54c0-.932-.153-1.623-.457-2.077-.305-.453-.772-.68-1.403-.68-.61 0-1.072.23-1.386.69-.313.458-.472 1.136-.475 2.029V117c0 .898.156 1.584.469 2.055.312.471.781.706 1.404.706.622 0 1.083-.217 1.382-.651.299-.436.454-1.102.466-2v-1.65zm8.13 5.165h-1.116l-3.533-6.78v6.78h-1.115v-8.798h1.115l3.545 6.81v-6.81h1.104v8.798zm6.445-7.843h-2.324v7.843h-1.108v-7.843h-2.315v-.955h5.747v.955zm2 7.843h-1.11v-8.798h1.11v8.798zM69.505 92.564a2.717 2.717 0 0 1 1.798-.673h2.257a.46.46 0 1 1 0 .917h-2.257c-.998 0-1.798.796-1.798 1.784v5.688a.459.459 0 0 1-.92 0V87.802a2.708 2.708 0 0 1 2.718-2.712h2.257a.46.46 0 1 1 0 .917h-2.257c-.998 0-1.798.8-1.798 1.795v4.762zm-.055 13.443v1.826a.46.46 0 0 1-.92 0v-1.83l.006-.358a3.265 3.265 0 0 1 3.257-3.208h1.177a3.512 3.512 0 0 0 3.522-3.508V86.34a.46.46 0 0 1 .92 0v12.59a4.43 4.43 0 0 1-4.442 4.422h-1.179a2.347 2.347 0 0 0-2.335 2.305l-.006.35zm-4.243-5.727v-5.688c0-.988-.8-1.784-1.797-1.784h-2.257a.46.46 0 1 1 0-.917h2.257c.69 0 1.32.254 1.797.673v-4.762c0-.995-.8-1.795-1.797-1.795h-2.257a.46.46 0 1 1 0-.917h2.257a2.708 2.708 0 0 1 2.717 2.712v12.478a.46.46 0 0 1-.92 0zm.056 7.55v-1.823l-.006-.351a2.347 2.347 0 0 0-2.336-2.305h-1.178a4.43 4.43 0 0 1-4.442-4.423V86.34a.459.459 0 0 1 .92 0v12.59a3.512 3.512 0 0 0 3.522 3.507h1.177a3.265 3.265 0 0 1 3.257 3.208l.005.357v1.828a.46.46 0 0 1-.92 0zm5.332-26.617a.46.46 0 0 1 .44.478.46.46 0 0 1-.48.438c-1.109-.048-1.852.249-2.33.765-.257.279-.384.552-.42.71a.458.458 0 0 1-.41.353h-.029a.457.457 0 0 1-.458-.353c-.037-.159-.164-.431-.422-.709-.478-.515-1.22-.812-2.329-.764a.46.46 0 0 1-.48-.438.46.46 0 0 1 .44-.478c1.203-.053 2.123.249 2.78.804v-3.102a.46.46 0 0 1 .92 0v3.1c.654-.555 1.574-.856 2.778-.804z"/></svg>