<svg width="1094" height="161" viewBox="0 0 1094 161" xmlns="http://www.w3.org/2000/svg" xmlns:xlink="http://www.w3.org/1999/xlink"><defs><path d="M14.146 101.65C5.578 92.921 0 80.415 0 64.13c0-70.18 103.593-70.18 103.593 0 0 16.328-5.607 28.857-14.213 37.587L72.63 80.684c2.768-4.282 4.463-9.8 4.463-16.554 0-36.3-50.592-36.3-50.592 0 0 6.71 1.672 12.2 4.409 16.47l-16.764 21.05zm553.81-65.35V13.31h74.683V36.3h-24.694v78.65H592.65V36.3h-24.694zm139.127-22.99c39.751 0 46.979 48.4 21.08 65.34l19.876 32.67v3.63h-28.91l-17.466-29.645h-13.25v29.645h-25.899V13.31h44.57zm0 48.4c13.853 0 14.455-24.805 0-25.41h-18.67v25.41h18.67zm97.57-49.61h11.444l45.172 99.22v3.63h-25.296l-6.023-12.705h-39.751l-6.023 12.705H758.88v-3.63l45.774-99.22zm-5.42 67.76h22.887l-11.443-26.62-11.444 26.62zM916.68 13.31c65.649 0 65.649 101.64 0 101.64h-37.944V13.31h37.944zm0 78.045c31.921 0 31.921-54.45 0-54.45h-12.046v54.45h12.046zm98.172.605h38.547v22.99h-64.445V13.31h63.24V36.3h-37.342v14.52h34.33v22.99h-34.33v18.15zm-861.87-78.65v78.045h36.739v23.595h-62.638V13.31h25.899zm85.524 33.88l18.069-33.88h28.307v3.63l-34.33 55.055v42.955h-25.296V71.995L191.527 16.94v-3.63h27.705l18.069 33.88h1.204zm113.23 9.68l40.955-43.56h9.035v101.64h-26.501V69.575L353.542 91.96h-3.012l-21.682-22.385v45.375h-26.5V12.705h9.636l39.75 44.165zm123.468-43.56c48.183 0 48.183 75.625 0 75.625h-18.67v26.015h-25.899V13.31h44.57zm0 52.03c13.853 0 15.058-28.435 0-29.04h-18.67v29.04h18.67zM51.194 72.6L90.343 121H12.046l39.148-48.4zM315.598 0h72.274l-36.137 38.115L315.598 0z" id="b"/><filter x="-2.2%" y="-19.4%" width="106.9%" height="160.3%" filterUnits="objectBoundingBox" id="a"><feOffset dx="13" dy="13" in="SourceAlpha" result="shadowOffsetOuter1"/><feGaussianBlur stdDeviation="10" in="shadowOffsetOuter1" result="shadowBlurOuter1"/><feColorMatrix values="0 0 0 0 0 0 0 0 0 0 0 0 0 0 0 0 0 0 0.11 0" in="shadowBlurOuter1"/></filter></defs><g opacity=".7"><g transform="translate(7 7)" opacity=".4" fill="none"><use fill="#000" filter="url(#a)" xlink:href="#b"/><use fill="#FFF" fill-rule="evenodd" xlink:href="#b"/></g></g></svg>