<svg width="841" height="241" viewBox="0 0 841 241" xmlns="http://www.w3.org/2000/svg" xmlns:xlink="http://www.w3.org/1999/xlink"><defs><path id="a" d="M.346 3.547H849V240H.346z"/></defs><g transform="translate(-10.272 1)" fill="none" fill-rule="evenodd"><mask id="b" fill="#fff"><use xlink:href="#a"/></mask><path d="M-4.363 305.418h928.138V-28.35l-7.62 5.717c-1.058.794-2.877 1.398-4.205 1.398h-6.798c-1.322 0-3.15-.607-4.205-1.398l-7.623-5.72a.862.862 0 0 0-1.27.218l-8.603 12.908c-.714 1.072-2.158 2.313-3.325 2.86L839.67 6.568c-.982.46-2.54 1.264-3.48 1.796L813.177 21.4a35.816 35.816 0 0 0-3.226 2.117L786.656 41.09a40.76 40.76 0 0 1-3.436 2.28l-23.014 13.342c-1.305.757-3.232.649-4.435-.252l-23.295-17.42c-.373-.28-.754-.187-.955.234L706.75 91.168c-.566 1.185-1.887 2.574-3.044 3.2l-22.972 12.439a49.192 49.192 0 0 0-3.333 2.018l-23.175 15.604a30.127 30.127 0 0 0-2.999 2.373l-23.565 21.797c-1.021.944-2.856 1.544-4.243 1.389l-22.508-2.519c-.942-.105-2.492.105-3.371.457l-22.764 9.097c-1.145.458-3 .815-4.226.813l-22.507-.029c-1.326-.002-3.141-.648-4.178-1.488l-23.373-18.936c-.852-.69-2.253-1.783-3.126-2.438l-23.294-17.484c-.493-.37-1.293-.318-1.734.11l-23.622 22.943c-.966.938-2.729 1.707-4.07 1.775l-22.508 1.148c-1.017.052-2.692.34-3.672.632l-22.658 6.75a38.148 38.148 0 0 0-3.632 1.328l-22.827 9.983c-1.097.48-2.902.979-4.095 1.132l-22.507 2.9c-.98.127-2.523.634-3.381 1.11l-22.993 12.776c-1.156.642-3.041 1-4.355.828l-22.507-2.943c-.99-.13-2.625-.055-3.59.161l-22.593 5.076c-1 .224-2.622.78-3.553 1.216l-22.869 10.722c-1.133.531-2.975.947-4.221.952l-22.507.1c-.978.004-2.596.302-3.518.648l-22.743 8.532c-1.186.445-3.076.67-4.336.516l-22.508-2.753a46.386 46.386 0 0 0-3.88-.278l-22.508-.46c-.984-.02-2.621.225-3.565.533l-22.679 7.415a45.52 45.52 0 0 0-3.628 1.4l-22.848 10.232a29.062 29.062 0 0 1-3.919 1.366l-22.615 5.768a33.432 33.432 0 0 1-4.074.723l-22.507 2.296a31.12 31.12 0 0 1-4.14.093l-22.507-1.278c-.71-.04-1.667.492-2.006 1.118l-8.915 16.433c-.701 1.293-2.362 2.275-3.838 2.275h-6.798c-.556 0-1.009.451-1.009 1.001v53.678z" stroke="#2AA86E" stroke-width="2" mask="url(#b)"/><circle stroke="#2AA86E" stroke-width="2" fill="#FAFAFA" cx="846" cy="4" r="4"/></g></svg>