<svg width="836" height="241" viewBox="0 0 836 241" xmlns="http://www.w3.org/2000/svg" xmlns:xlink="http://www.w3.org/1999/xlink"><defs><path id="a" d="M.346 3.547H849V240H.346z"/></defs><g transform="translate(-15.272 1)" fill="none" fill-rule="evenodd"><mask id="b" fill="#fff"><use xlink:href="#a"/></mask><path d="M-4.363 305.418h928.138V-8.35l-7.62 5.717c-1.058.794-2.877 1.398-4.205 1.398h-6.798c-1.51 0-3.12-1.071-3.697-2.465l-9.09-21.95-9.2 24.013c-.527 1.374-2.048 2.575-3.505 2.761L839.54 6.25c-.78.1-1.815.805-2.196 1.495l-24.557 44.502c-.66 1.196-2.16 2.409-3.469 2.803l-22.658 6.827c-.987.298-2.546.974-3.44 1.493l-23.014 13.342a31.398 31.398 0 0 1-3.743 1.792L733.7 87.261c-.759.291-1.695 1.24-1.979 2.006l-25.099 67.742c-.49 1.325-1.89 2.657-3.237 3.081l-22.68 7.143c-.96.303-2.467 1.029-3.303 1.592l-23.175 15.604c-1.143.77-3.03 1.139-4.378.86l-22.572-4.687a50.903 50.903 0 0 0-3.857-.614l-22.508-2.519c-.942-.105-2.492.105-3.371.457l-22.764 9.097c-1.145.458-3 .815-4.226.813l-22.507-.029a90.565 90.565 0 0 1-4.036-.114l-22.507-1.24a79.972 79.972 0 0 0-3.923-.1l-22.507.1c-.918.004-2.409.417-3.203.889l-23.054 13.687c-1.091.648-2.904 1.196-4.168 1.26l-22.507 1.148c-1.017.052-2.692.34-3.672.632l-22.658 6.75a38.148 38.148 0 0 0-3.632 1.328l-22.827 9.983c-1.097.48-2.902.979-4.095 1.132l-22.507 2.9c-1.214.157-3.086.092-4.284-.147l-22.55-4.497a71.571 71.571 0 0 0-3.895-.642l-22.507-2.943c-.99-.13-2.625-.055-3.59.161l-22.593 5.076a38.35 38.35 0 0 1-4.067.64l-22.508 2.055c-1.125.103-2.941.19-4.068.195l-22.507.1c-1.099.005-2.89.006-3.99.004l-22.506-.053c-1.012-.002-2.692.207-3.679.459l-22.615 5.771c-1.158.295-3.005.509-4.196.484l-22.507-.46a161.268 161.268 0 0 1-4.012-.142l-22.507-1.138a38.944 38.944 0 0 0-3.862.038l-22.507 1.582c-1.275.09-3.15-.284-4.298-.857l-22.91-11.454c-.824-.412-2.317-.685-3.232-.592l-22.507 2.296c-.937.095-2.39.635-3.157 1.171l-23.215 16.21a35.085 35.085 0 0 0-3.003 2.41L7.6 249.125c-.995.915-2.797 1.614-4.155 1.614h-6.798c-.556 0-1.009.451-1.009 1.001v53.678z" stroke="#0C1729" stroke-width="2" mask="url(#b)"/><circle stroke="#0C1729" stroke-width="2" fill="#FAFAFA" cx="846" cy="4" r="4"/></g></svg>