<svg width="850" height="236" viewBox="0 0 850 236" xmlns="http://www.w3.org/2000/svg" xmlns:xlink="http://www.w3.org/1999/xlink"><defs><path id="a" d="M.346 1.56H849V240H.346z"/></defs><g transform="translate(-.272 1)" fill="none" fill-rule="evenodd"><mask id="b" fill="#fff"><use xlink:href="#a"/></mask><path d="M-4.363 305.976h928.138V-30.612l-7.617 5.763c-1.058.8-2.879 1.41-4.208 1.41h-6.798c-1.324 0-3.154-.612-4.208-1.41l-7.624-5.768c-.423-.32-.97-.225-1.264.22l-8.603 13.018c-.705 1.066-2.114 2.348-3.238 2.947L844.672 4.49c-.825.44-1.991 1.496-2.507 2.271l-29.284 44.081c-.695 1.046-2.084 2.342-3.178 2.966L786.69 66.933c-1.13.644-2.993 1.077-4.287.996l-22.508-1.407a41.616 41.616 0 0 1-4.078-.5l-22.55-4.13c-.632-.115-1.413.3-1.665.88l-24.904 57.35c-.47 1.084-1.41 2.682-2.131 3.624L680.509 155.2c-.739.966-2.1 2.252-3.105 2.934l-23.175 15.736a53.307 53.307 0 0 1-3.494 2.144l-22.972 12.682c-1.159.64-3.036 1.012-4.345.864l-22.508-2.54c-.94-.106-2.49.106-3.367.46l-22.764 9.174c-1.156.466-2.996.822-4.23.82l-22.506-.029a297.995 297.995 0 0 1-3.999-.038l-22.507-.394c-.979-.017-2.601.242-3.53.564l-22.72 7.887a31.853 31.853 0 0 1-4.005 1.047l-22.55 4.058c-1.08.195-2.836.532-3.916.752l-22.551 4.593c-1.13.23-2.945.48-4.088.562l-22.507 1.62c-1.088.078-2.867.23-3.956.337l-22.508 2.213c-1.108.11-2.883.278-3.988.38l-22.507 2.067a179.68 179.68 0 0 1-4.008.315l-22.508 1.473a59.02 59.02 0 0 1-4.065.097l-22.507-.398a51.545 51.545 0 0 0-3.89.11l-22.507 1.671a83.908 83.908 0 0 1-4.04.182l-22.508.36a98.142 98.142 0 0 1-4.031-.035l-22.507-.757a153.33 153.33 0 0 0-3.951-.07l-22.507-.054a711.16 711.16 0 0 1-3.99-.023l-22.506-.206c-1.05-.01-2.791.097-3.843.236l-22.507 2.963c-1.179.155-3.025.194-4.201.09l-22.507-2.005a29.207 29.207 0 0 0-3.823-.034l-22.507 1.595c-1.085.077-2.862.233-3.949.347l-22.507 2.362c-1.12.118-2.905.269-4.022.341l-22.507 1.458c-1.124.073-2.94.115-4.066.093l-22.507-.432a75.771 75.771 0 0 0-3.924.048l-17.639.771c-.562.025-1.04.525-1.04 1.095v71.291z" stroke="#DD563F" stroke-width="2" mask="url(#b)"/><ellipse stroke="#DD563F" stroke-width="2" fill="#FAFAFA" cx="845" cy="4.034" rx="4" ry="4.034"/></g></svg>