<svg width="144" height="18" viewBox="0 0 144 18" fill="none" xmlns="http://www.w3.org/2000/svg"><path fill-rule="evenodd" clip-rule="evenodd" d="M.081 9.492c0 9.49 14.073 9.49 14.073 0C14.154 0 .082 0 .082 9.492zm3.6 0c0-4.91 6.873-4.91 6.873 0a3.448 3.448 0 0 1-6.872 0zm17.183-6.873h-3.519v13.745h8.51v-3.192h-4.991V2.619zM32.48 7.2h-.163l-2.453-4.58H26.1v.49l4.581 7.446v5.81h3.437v-5.81l4.663-7.446v-.49h-3.845L32.48 7.2zm15.384 1.31l-5.4-5.972h-1.31v13.827h3.6v-6.137l2.946 3.029h.408l2.946-3.029v6.137h3.6V2.62h-1.226l-5.563 5.89h-.001zm16.772-5.89H58.58v13.745h3.52v-3.518h2.536c6.545 0 6.545-10.228 0-10.228zm0 7.036H62.1V5.728h2.536c2.045.082 1.882 3.929 0 3.929v-.002zm12.6-3.928h3.355v10.637h3.436V5.727h3.354V2.62H77.236v3.108zm18.9-3.108H90.08v13.745h3.52v-4.01h1.8l2.371 4.01h3.929v-.491L99 11.455c3.518-2.29 2.536-8.836-2.864-8.836zm0 6.545H93.6V5.727h2.536c1.964.082 1.882 3.437 0 3.437zm13.255-6.71l-6.219 13.419v.491h3.435l.819-1.718h5.4l.818 1.718h3.436v-.491l-6.136-13.418h-1.554.001zm-.737 9.165l1.554-3.6 1.556 3.6h-3.11zm15.954-9h-5.154v13.745h5.154c8.919 0 8.919-13.745 0-13.745zm0 10.554h-1.635V5.809h1.635c4.337 0 4.337 7.364 0 7.364zm13.337.082V10.8h4.663V7.692h-4.663V5.727h5.072V2.62h-8.59v13.745h8.754v-3.11h-5.236z" fill="#333"/><path fill-rule="evenodd" clip-rule="evenodd" d="M6.954 10.8l-5.318 6.545h10.637L6.954 10.8z" fill="#2AA76D"/><path fill-rule="evenodd" clip-rule="evenodd" d="M42.792 0L47.7 4.909 52.61 0h-9.818z" fill="#DF553A"/></svg>