<svg fill="none" height="52" viewBox="0 0 52 52" width="52" xmlns="http://www.w3.org/2000/svg"><path d="M38.187 4.333H13.812a9.48 9.48 0 00-9.479 9.48v24.374a9.48 9.48 0 009.48 9.48h24.374a9.48 9.48 0 009.48-9.48V13.812a9.48 9.48 0 00-9.48-9.479z" fill="#2aa76d"/><path d="M32.5 30.105c0-5.939-9.314-4.98-9.314-8.539 0-1.423 1.265-2.271 3.069-2.271 1.184 0 2.207.41 3.015.848.242.137.457.274.7.41.35.22.807.137.996-.246l.834-1.56a.719.719 0 00-.161-.875 8.018 8.018 0 00-.781-.548 8.48 8.48 0 00-3.23-1.067v-2.573a.672.672 0 00-.673-.684H25.15a.672.672 0 00-.673.684v2.628c-2.934.602-4.872 2.682-4.872 5.31 0 6.157 9.314 5.308 9.314 8.702 0 1.56-1.346 2.409-2.934 2.409-1.292 0-2.53-.548-3.392-1.068-.323-.191-.62-.41-.915-.63a.673.673 0 00-.942.138l-1.104 1.505a.727.727 0 00.108.958c.296.246.619.465.969.711.888.602 2.153 1.177 3.741 1.423v2.546c0 .383.296.684.673.684h1.804a.672.672 0 00.673-.684v-2.573c3.122-.575 4.899-2.928 4.899-5.638z" fill="#fff"/></svg>