<svg fill="none" height="24" viewBox="0 0 24 24" width="24" xmlns="http://www.w3.org/2000/svg"><path d="M21.212 9.615c-1.409-.396-5.786-.857-5.8-.858 0 0-1.738-4.044-2.591-5.228-.719-.998-1.404-.339-1.63-.002-.81 1.215-2.596 5.23-2.596 5.23s-4.41.313-5.806.754c-1.176.371-.758 1.223-.505 1.54.91 1.144 4.205 4.157 4.205 4.157s-.995 4.284-1.007 5.741c-.011 1.228.932 1.097 1.314.957 1.375-.505 5.208-2.712 5.208-2.712s3.772 2.252 5.162 2.713c1.17.389 1.336-.544 1.32-.949-.06-1.457-.967-5.75-.967-5.75s3.317-2.88 4.19-4.05c.735-.986-.106-1.432-.497-1.543z" fill="#2b435e"/><path clip-rule="evenodd" d="M6 8.992c-1.221.131-2.552.31-3.21.519-1.177.371-.759 1.223-.507 1.54.692.87 2.765 2.821 3.717 3.705zm0 8.49v4.461c-.286-.1-.524-.374-.518-.994.006-.738.265-2.202.518-3.467z" fill="#f9b42e" fill-rule="evenodd"/></svg>